<?xml version="1.0" encoding="utf-8"?>
<!-- Generator: Adobe Illustrator 18.0.0, SVG Export Plug-In . SVG Version: 6.00 Build 0)  -->
<!DOCTYPE svg PUBLIC "-//W3C//DTD SVG 1.1//EN" "http://www.w3.org/Graphics/SVG/1.1/DTD/svg11.dtd">
<svg version="1.1" id="Layer_1" xmlns="http://www.w3.org/2000/svg" xmlns:xlink="http://www.w3.org/1999/xlink" x="0px" y="0px"
	 viewBox="384.6 240.5 510.9 318.8" enable-background="new 384.6 240.5 510.9 318.8" xml:space="preserve">
<path fill="#7AAAD1" d="M644,295.9c-141-7.7-257.2,19.1-259.4,59.8S495,435.5,636,443.2s257.2-19.1,259.4-59.8S785,303.6,644,295.9z
	 M877.4,380.1c-1.8,37.7-109.5,63.2-240.4,56.8c-130.9-6.4-235.6-42.2-233.7-79.9c1.8-37.7,109.5-63.2,240.4-56.8
	C774.6,306.6,879.3,342.4,877.4,380.1z"/>
<polygon fill="#F9CE40" stroke="#FFFFFF" stroke-width="3" stroke-miterlimit="10" points="699.7,257.3 694.9,345.5 783.1,341.3 
	717.3,400.3 782.7,459.7 694.5,454.9 698.7,543.1 639.7,477.3 580.3,542.7 585.1,454.5 496.9,458.7 562.7,399.7 497.3,340.3 
	585.5,345.1 581.3,256.9 640.3,322.7 "/>
<polygon fill="#F9CE40" stroke="#FFFFFF" stroke-width="3" stroke-miterlimit="10" points="669.8,248.2 682.8,335.6 768.4,313.7 
	715.8,384.7 791.8,429.8 704.4,442.8 726.3,528.4 655.3,475.8 610.2,551.8 597.2,464.4 511.6,486.3 564.2,415.3 488.2,370.2 
	575.6,357.2 553.7,271.6 624.7,324.2 "/>
<polygon fill="#F9CE40" stroke="#FFFFFF" stroke-width="3" stroke-miterlimit="10" points="639.6,245.3 669.4,328.5 749.1,290.4 
	711.4,370.2 794.7,399.6 711.5,429.4 749.6,509.1 669.8,471.4 640.4,554.7 610.6,471.5 530.9,509.6 568.6,429.8 485.3,400.4 
	568.5,370.6 530.4,290.9 610.2,328.6 "/>
<polygon fill="#F9CE40" stroke="#FFFFFF" stroke-width="3" stroke-miterlimit="10" points="611.9,247.9 656.1,324.4 727.7,272.6 
	704.9,357.9 792.1,371.9 715.6,416.1 767.4,487.7 682.1,464.9 668.1,552.1 623.9,475.6 552.3,527.4 575.1,442.1 487.9,428.1 
	564.4,383.9 512.6,312.3 597.9,335.1 "/>
<g>
	<path fill="#F9CE40" d="M638.7,524.5c-68.1,0-123.5-55.4-123.5-123.5s55.4-123.5,123.5-123.5S762.2,332.9,762.2,401
		S706.8,524.5,638.7,524.5z"/>
	<path fill="#FFFFFF" d="M638.7,281c66.3,0,120,53.7,120,120s-53.7,120-120,120s-120-53.7-120-120S572.4,281,638.7,281 M638.7,274
		c-33.9,0-65.8,13.2-89.8,37.2s-37.2,55.9-37.2,89.8s13.2,65.8,37.2,89.8s55.9,37.2,89.8,37.2s65.8-13.2,89.8-37.2
		s37.2-55.9,37.2-89.8s-13.2-65.8-37.2-89.8S672.6,274,638.7,274L638.7,274z"/>
</g>
<polygon fill="#292F71" points="699.7,479 720.9,479 640.3,322.7 559.7,479 580.8,479 640.3,363.7 "/>
<path fill="#7AAAD1" d="M884,402.1c-5.5-0.5-11.4-2.4-15.8-4.4c-28.8,27.7-121.9,44.5-231.2,39.2C535.7,432,450.2,409.4,417.5,382
	c-3.3,1-6.6,2-10,2.8c-1.3,0.3-2.6,0.6-4,0.9c37.6,28.4,127.1,51.7,232.5,57.5c117.4,6.4,217.5-11.1,249-40.6
	C884.7,402.5,884.3,402.3,884,402.1z"/>
</svg>
