<?xml version="1.0" encoding="utf-8"?>
<!-- Generator: Adobe Illustrator 18.0.0, SVG Export Plug-In . SVG Version: 6.00 Build 0)  -->
<!DOCTYPE svg PUBLIC "-//W3C//DTD SVG 1.1//EN" "http://www.w3.org/Graphics/SVG/1.1/DTD/svg11.dtd">
<svg version="1.1" id="Layer_1" xmlns="http://www.w3.org/2000/svg" xmlns:xlink="http://www.w3.org/1999/xlink" x="0px" y="0px"
	 viewBox="195 288.9 884.2 255" enable-background="new 195 288.9 884.2 255" xml:space="preserve">
	 <link href='http://fonts.googleapis.com/css?family=Roboto:400,400italic,500,500italic,300,300italic' rel='stylesheet' type='text/css'>
<g>
	<g>
		<g>
			<defs>
				<rect id="SVGID_1_" x="843.5" y="252" width="248.8" height="248.8"/>
			</defs>
			<clipPath id="SVGID_2_">
				<use xlink:href="#SVGID_1_"  overflow="visible"/>
			</clipPath>
			<g clip-path="url(#SVGID_2_)">
				<g>
					<defs>
						<rect id="SVGID_3_" x="843.5" y="252" width="248.8" height="248.8"/>
					</defs>
					<defs>
						<rect id="SVGID_4_" x="843.5" y="252" width="248.8" height="248.8"/>
					</defs>
					<defs>
						<rect id="SVGID_5_" x="843.5" y="252" width="248.8" height="248.8"/>
					</defs>
					<defs>
						<rect id="SVGID_6_" x="843.5" y="252" width="248.8" height="248.8"/>
					</defs>
					<clipPath id="SVGID_7_">
						<use xlink:href="#SVGID_3_"  overflow="visible"/>
					</clipPath>
					<clipPath id="SVGID_8_" clip-path="url(#SVGID_7_)">
						<use xlink:href="#SVGID_4_"  overflow="visible"/>
					</clipPath>
					<clipPath id="SVGID_9_" clip-path="url(#SVGID_8_)">
						<use xlink:href="#SVGID_5_"  overflow="visible"/>
					</clipPath>
					<clipPath id="SVGID_10_" clip-path="url(#SVGID_9_)">
						<use xlink:href="#SVGID_6_"  overflow="visible"/>
					</clipPath>
					<path clip-path="url(#SVGID_10_)" fill="#ECF0F1" d="M856.7,331.9c0,0,42,23.7,106,0c66.5-24.6,116.5,0,116.5,0
						s-57.1-13.9-113.5,9.9C917.3,362.1,877.6,348.4,856.7,331.9"/>
					<path clip-path="url(#SVGID_10_)" fill="#ECF0F1" d="M856.7,360c0,0,42,23.7,106,0c66.5-24.6,116.5,0,116.5,0
						s-57.1-13.9-113.5,9.9C917.3,390.2,877.6,376.5,856.7,360"/>
					<g clip-path="url(#SVGID_10_)">
						<text transform="matrix(1 0 0 1 859.002 431.0068)" fill="#1976D2" font-family="'Roboto-Medium'" font-size="186.5847">EZ</text>
					</g>
					<path clip-path="url(#SVGID_10_)" fill="#ECF0F1" d="M856.7,387.8c0,0,42,23.7,106,0c66.5-24.6,116.5,0,116.5,0
						s-57.1-13.9-113.5,9.9C917.3,418,877.6,404.3,856.7,387.8"/>
				</g>
			</g>
		</g>
		<g>
			<text transform="matrix(1 0 0 1 181.6298 428.9532)" fill="#1976D2" font-family="'Roboto-Medium'" font-size="186.5847">Breathe</text>
		</g>
		<text transform="matrix(1 0 0 1 265.7841 531.3622)" fill="#1976D2" font-family="'Roboto-Medium'" font-size="78.4314">Home Solutions, LLC.</text>
	</g>
</g>
</svg>
