<?xml version="1.0" encoding="utf-8"?>
<!-- Generator: Adobe Illustrator 18.0.0, SVG Export Plug-In . SVG Version: 6.00 Build 0)  -->
<!DOCTYPE svg PUBLIC "-//W3C//DTD SVG 1.1//EN" "http://www.w3.org/Graphics/SVG/1.1/DTD/svg11.dtd">
<svg version="1.1" id="Layer_1" xmlns="http://www.w3.org/2000/svg" xmlns:xlink="http://www.w3.org/1999/xlink" x="0px" y="0px"
	 viewBox="0 0 931.9 905.5" enable-background="new 0 0 931.9 905.5" xml:space="preserve">
<g>
	<g>
		<path fill="#1976D2" d="M85.9,172.9V6.8h56.9c9,0,17,0.9,24.2,2.7c7.1,1.8,13.2,4.5,18.1,8.2c4.9,3.7,8.7,8.3,11.4,14
			c2.6,5.7,3.9,12.4,3.9,20.1c0,7.6-2.1,14.5-6.2,20.5c-4.1,6.1-10.1,10.8-18,14.1c4.8,1.3,9,3.2,12.5,5.6c3.5,2.5,6.5,5.4,8.8,8.7
			c2.3,3.3,4.1,7,5.2,11.1c1.1,4,1.7,8.2,1.7,12.6c0,8-1.3,15-3.9,21.1c-2.6,6-6.4,11.1-11.4,15.2c-5,4.1-11,7.1-18.1,9.2
			c-7.1,2.1-15.2,3.1-24.1,3.1H85.9z M114.8,76.7h28.3c9,0,16-2,21.1-6.1c5.1-4.1,7.6-9.8,7.6-17.3c0-8.2-2.3-14.1-7-17.8
			c-4.7-3.7-12-5.5-21.8-5.5h-28.1V76.7z M114.8,97.9v51.9h32.1c4.7,0,8.9-0.6,12.5-1.8c3.6-1.2,6.6-2.9,9.1-5.2
			c2.4-2.2,4.3-4.9,5.5-8c1.2-3.1,1.8-6.6,1.8-10.4c0-8.2-2.2-14.7-6.5-19.4c-4.3-4.7-11.4-7.1-21.1-7.1H114.8z"/>
		<path fill="#1976D2" d="M295.3,74.8c-1.8-0.3-3.7-0.5-5.5-0.7c-1.9-0.2-3.8-0.2-5.8-0.2c-6.7,0-12.1,1.3-16.3,3.9
			c-4.2,2.6-7.3,6.2-9.4,10.7v84.4h-27.7V49.4h26.5l0.7,13.8c3.1-5,7-9,11.6-11.8c4.6-2.9,10-4.3,16.3-4.3c1.6,0,3.4,0.2,5.4,0.5
			c2,0.3,3.5,0.7,4.4,1.1L295.3,74.8z"/>
		<path fill="#1976D2" d="M365,175.2c-9.1,0-17.3-1.5-24.6-4.6c-7.3-3-13.5-7.2-18.6-12.6c-5.1-5.3-9-11.6-11.8-18.9
			c-2.7-7.3-4.1-15.2-4.1-23.6v-4.6c0-9.7,1.4-18.5,4.3-26.4c2.9-7.9,6.8-14.6,11.9-20.1c5-5.5,10.9-9.8,17.7-12.8
			c6.8-3,14.1-4.5,22-4.5c9,0,16.8,1.5,23.4,4.5c6.6,3,12.1,7.2,16.4,12.6c4.3,5.4,7.6,11.8,9.7,19.3c2.1,7.5,3.2,15.6,3.2,24.5
			v11.9h-80.7c0.4,4.8,1.4,9.2,3,13.2c1.6,4,3.9,7.5,6.7,10.4c2.8,2.9,6.1,5.2,10,6.9c3.8,1.7,8.2,2.5,13.1,2.5
			c6.8,0,12.8-1.4,17.9-4.1c5.1-2.7,9.5-6.5,13.2-11.3l14.9,14.3c-2,3-4.4,5.8-7.4,8.6c-2.9,2.8-6.4,5.2-10.3,7.4
			c-3.9,2.2-8.3,3.9-13.3,5.2C376.7,174.5,371.2,175.2,365,175.2z M361.7,69.4c-7.6,0-13.7,2.7-18.4,8c-4.7,5.3-7.7,12.7-9,22.2
			h52.8v-2.1c-0.2-3.7-0.8-7.2-1.8-10.6c-1-3.4-2.4-6.4-4.4-9c-2-2.6-4.5-4.7-7.7-6.3C370.1,70.2,366.3,69.4,361.7,69.4z"/>
		<path fill="#1976D2" d="M509.8,172.9c-0.8-1.4-1.4-3.2-1.9-5.1c-0.5-2-0.9-4.1-1.3-6.4c-1.8,1.9-3.9,3.7-6.1,5.4
			c-2.2,1.7-4.7,3.1-7.4,4.4c-2.7,1.3-5.6,2.2-8.8,3c-3.2,0.7-6.5,1.1-10.1,1.1c-6.2,0-11.8-0.9-17-2.8c-5.2-1.9-9.6-4.4-13.3-7.8
			c-3.7-3.3-6.6-7.2-8.7-11.7c-2.1-4.5-3.1-9.4-3.1-14.6c0-6.6,1.3-12.5,3.8-17.6c2.5-5.1,6.2-9.4,11-12.8s10.7-6,17.6-7.8
			c7-1.8,14.9-2.7,23.8-2.7h17.5v-8.1c0-6.4-1.8-11.5-5.4-15.3c-3.6-3.8-9-5.8-16.3-5.8c-3.3,0-6.2,0.4-8.9,1.3
			c-2.7,0.9-4.9,2.1-6.8,3.5c-1.9,1.5-3.3,3.3-4.3,5.3s-1.5,4.3-1.5,6.6h-27.7c0-4.9,1.2-9.6,3.6-14.1c2.4-4.5,5.8-8.6,10.2-12.1
			c4.4-3.5,9.8-6.4,16-8.5c6.3-2.1,13.3-3.2,21.1-3.2c6.9,0,13.3,0.9,19.2,2.7c5.9,1.8,10.9,4.4,15.2,8c4.3,3.5,7.6,7.9,9.9,13.2
			c2.4,5.3,3.5,11.5,3.5,18.5v54.8c0,11.1,1.6,20,4.7,26.6v1.9H509.8z M479.3,152.9c3.2,0,6.2-0.4,9-1.3c2.8-0.8,5.3-1.9,7.5-3.3
			c2.2-1.4,4.2-2.9,5.9-4.7c1.7-1.8,3-3.6,4-5.4v-23.3h-14.9c-10.3,0-18,1.8-23.2,5.4c-5.2,3.6-7.8,8.6-7.8,15.2
			c0,2.5,0.4,4.8,1.3,7c0.8,2.1,2.1,4,3.8,5.5c1.7,1.6,3.7,2.8,6.1,3.7C473.3,152.5,476.1,152.9,479.3,152.9z"/>
		<path fill="#1976D2" d="M597.2,19.4v30H619V70h-21.8v68.9c0,2.8,0.3,5.1,0.9,6.8c0.6,1.8,1.5,3.1,2.6,4.1c1.1,1,2.5,1.6,4.1,1.9
			c1.6,0.3,3.3,0.5,5.2,0.5c1.9,0,3.7-0.1,5.5-0.4c1.8-0.3,3.2-0.5,4.2-0.7v21.4c-2.2,0.6-4.8,1.2-7.7,1.8
			c-2.9,0.6-6.4,0.9-10.6,0.9c-4.6,0-8.8-0.6-12.7-1.8c-3.9-1.2-7.3-3.2-10.2-5.9s-5.1-6.3-6.7-10.7c-1.6-4.4-2.4-9.8-2.4-16.2V70
			h-20.3V49.4h20.3v-30H597.2z"/>
		<path fill="#1976D2" d="M667.5,62.9c4.3-4.9,9.3-8.8,15.1-11.6c5.8-2.8,12.2-4.2,19.3-4.2c6,0,11.5,0.8,16.4,2.5
			c4.9,1.7,9.2,4.4,12.7,8c3.5,3.7,6.2,8.5,8.1,14.4c1.9,5.9,2.9,13,2.9,21.4v79.4h-27.7V93.2c0-8.5-1.8-14.5-5.5-18.1
			c-3.7-3.5-9.1-5.3-16.3-5.3c-5.8,0-10.7,1.3-14.9,4c-4.1,2.7-7.5,6.3-10,10.8v88.2h-27.7V-2.4h27.7V62.9z"/>
		<path fill="#1976D2" d="M824.2,175.2c-9.1,0-17.3-1.5-24.6-4.6c-7.3-3-13.5-7.2-18.6-12.6c-5.1-5.3-9-11.6-11.8-18.9
			c-2.7-7.3-4.1-15.2-4.1-23.6v-4.6c0-9.7,1.4-18.5,4.3-26.4c2.9-7.9,6.8-14.6,11.9-20.1c5-5.5,10.9-9.8,17.7-12.8
			c6.8-3,14.1-4.5,22-4.5c9,0,16.8,1.5,23.4,4.5c6.6,3,12.1,7.2,16.4,12.6c4.3,5.4,7.6,11.8,9.7,19.3c2.1,7.5,3.2,15.6,3.2,24.5
			v11.9h-80.7c0.4,4.8,1.4,9.2,3,13.2c1.6,4,3.9,7.5,6.7,10.4c2.8,2.9,6.1,5.2,10,6.9c3.8,1.7,8.2,2.5,13.1,2.5
			c6.8,0,12.8-1.4,17.9-4.1c5.1-2.7,9.5-6.5,13.2-11.3l14.9,14.3c-2,3-4.4,5.8-7.4,8.6c-2.9,2.8-6.4,5.2-10.3,7.4
			c-3.9,2.2-8.3,3.9-13.3,5.2C835.9,174.5,830.4,175.2,824.2,175.2z M820.9,69.4c-7.6,0-13.7,2.7-18.4,8c-4.7,5.3-7.7,12.7-9,22.2
			h52.8v-2.1c-0.2-3.7-0.8-7.2-1.8-10.6c-1-3.4-2.4-6.4-4.4-9c-2-2.6-4.5-4.7-7.7-6.3C829.3,70.2,825.5,69.4,820.9,69.4z"/>
	</g>
	<path fill="#ECF0F1" d="M2,343.9c0,0,175.5,99,443,0c278.2-102.9,486.8,0,486.8,0s-239-57.8-474.4,41.4
		C255.2,470.5,89.7,412.8,2,343.9"/>
	<path fill="#ECF0F1" d="M2,461.4c0,0,175.5,99,443,0c278.2-102.9,486.8,0,486.8,0s-239-57.8-474.4,41.4
		C255.2,588,89.7,530.4,2,461.4"/>
	<g>
		<path fill="#1976D2" d="M392.2,510.9H164.4v170.7h266.3v76.9H68V203.8h360v77.7H164.4v153.1h227.8V510.9z"/>
		<path fill="#1976D2" d="M599.8,681.5h296.4v76.9H483.2V696l286.8-414.4H485.1v-77.7H887v60.9L599.8,681.5z"/>
	</g>
	<path fill="#ECF0F1" d="M2,577.9c0,0,175.5,99,443,0c278.2-102.9,486.8,0,486.8,0s-239-57.8-474.4,41.4
		C255.2,704.5,89.7,646.9,2,577.9"/>
	<g>
		<path fill="#1976D2" d="M122.3,903.3h-14.9v-38.3H68.9v38.3H54v-86.1h15v35.8h38.5v-35.8h14.9V903.3z"/>
		<path fill="#1976D2" d="M135.9,870.8c0-4.7,0.7-9,2-12.9s3.3-7.4,5.9-10.3c2.5-2.9,5.6-5.2,9.3-6.9c3.7-1.7,7.8-2.5,12.5-2.5
			c4.7,0,8.9,0.8,12.6,2.5c3.7,1.7,6.8,3.9,9.4,6.9c2.5,2.9,4.5,6.4,5.8,10.3c1.3,4,2,8.3,2,12.9v1.2c0,4.7-0.7,9-2,12.9
			c-1.3,4-3.3,7.4-5.8,10.3c-2.5,2.9-5.7,5.2-9.3,6.8c-3.7,1.6-7.9,2.5-12.5,2.5c-4.7,0-8.9-0.8-12.6-2.5c-3.7-1.6-6.8-3.9-9.3-6.8
			c-2.5-2.9-4.5-6.3-5.9-10.3c-1.4-4-2-8.3-2-12.9V870.8z M150.3,872c0,2.9,0.3,5.6,0.9,8.2c0.6,2.6,1.5,4.8,2.8,6.7
			c1.3,1.9,2.9,3.4,4.8,4.5c2,1.1,4.3,1.7,6.9,1.7c2.6,0,4.9-0.6,6.9-1.7c2-1.1,3.5-2.6,4.8-4.5c1.2-1.9,2.2-4.1,2.8-6.7
			c0.6-2.6,0.9-5.3,0.9-8.2v-1.2c0-2.8-0.3-5.5-0.9-8.1c-0.6-2.5-1.5-4.8-2.8-6.7c-1.3-1.9-2.9-3.4-4.8-4.6c-2-1.1-4.3-1.7-6.9-1.7
			c-2.7,0-5,0.6-6.9,1.7c-1.9,1.1-3.5,2.7-4.8,4.6c-1.3,1.9-2.2,4.1-2.8,6.7c-0.6,2.5-0.9,5.2-0.9,8.1V872z"/>
		<path fill="#1976D2" d="M221.1,839.4l0.4,6.7c2.1-2.5,4.7-4.4,7.8-5.8c3.1-1.4,6.6-2.1,10.7-2.1c3.9,0,7.4,0.8,10.5,2.3
			c3.1,1.6,5.4,4,7.1,7.5c2.1-3,4.8-5.4,8.1-7.2s7.1-2.7,11.6-2.7c3.3,0,6.3,0.4,8.9,1.3s4.8,2.3,6.6,4.2c1.8,1.9,3.2,4.4,4.1,7.4
			c1,3,1.4,6.6,1.4,10.8v41.4h-14.4v-41.5c0-2.4-0.3-4.3-0.8-5.8c-0.5-1.5-1.3-2.7-2.3-3.6c-1-0.9-2.2-1.5-3.6-1.9
			c-1.4-0.4-3-0.5-4.8-0.5c-3.3,0-5.9,0.9-8,2.6s-3.5,4-4.3,6.9c0,0.2,0,0.4,0,0.6c0,0.2,0,0.4,0,0.6v42.6h-14.4V862
			c0-2.2-0.3-4.1-0.8-5.7c-0.5-1.5-1.3-2.8-2.3-3.7c-1-0.9-2.2-1.6-3.6-2c-1.4-0.4-3-0.6-4.8-0.6c-3.1,0-5.6,0.6-7.6,1.9
			c-2,1.3-3.5,3-4.6,5.1v46.4h-14.4v-64H221.1z"/>
		<path fill="#1976D2" d="M341.1,904.5c-4.7,0-9-0.8-12.8-2.4c-3.8-1.6-7-3.7-9.6-6.5c-2.6-2.8-4.7-6-6.1-9.8s-2.1-7.9-2.1-12.2
			v-2.4c0-5,0.7-9.6,2.2-13.7c1.5-4.1,3.5-7.5,6.1-10.4c2.6-2.9,5.7-5.1,9.2-6.6c3.5-1.6,7.3-2.3,11.4-2.3c4.7,0,8.7,0.8,12.1,2.3
			c3.4,1.6,6.3,3.7,8.5,6.5c2.2,2.8,3.9,6.1,5,10c1.1,3.9,1.7,8.1,1.7,12.7v6.1h-41.8c0.2,2.5,0.7,4.8,1.6,6.9
			c0.8,2.1,2,3.9,3.5,5.4c1.5,1.5,3.2,2.7,5.2,3.6c2,0.9,4.2,1.3,6.8,1.3c3.5,0,6.6-0.7,9.3-2.1c2.6-1.4,4.9-3.4,6.8-5.9l7.7,7.4
			c-1,1.5-2.3,3-3.8,4.5c-1.5,1.4-3.3,2.7-5.3,3.8c-2,1.1-4.3,2-6.9,2.7C347.2,904.2,344.3,904.5,341.1,904.5z M339.4,849.7
			c-3.9,0-7.1,1.4-9.5,4.1c-2.4,2.8-4,6.6-4.6,11.5h27.4v-1.1c-0.1-1.9-0.4-3.7-0.9-5.5c-0.5-1.8-1.3-3.3-2.3-4.7
			c-1-1.4-2.4-2.4-4-3.3C343.7,850.1,341.7,849.7,339.4,849.7z"/>
		<path fill="#1976D2" d="M454.4,881.2c0-1.7-0.3-3.3-0.8-4.6c-0.5-1.4-1.4-2.6-2.8-3.8c-1.4-1.1-3.2-2.2-5.6-3.3
			c-2.4-1-5.4-2.1-9.2-3.3c-4.1-1.2-7.9-2.6-11.4-4.2c-3.5-1.6-6.5-3.4-9-5.5c-2.5-2.1-4.5-4.5-5.9-7.2s-2.1-5.8-2.1-9.3
			c0-3.5,0.7-6.7,2.2-9.6s3.6-5.4,6.2-7.6c2.7-2.1,5.9-3.8,9.6-5c3.7-1.2,7.9-1.8,12.4-1.8c4.8,0,9.2,0.7,13.1,2.1
			c3.9,1.4,7.1,3.3,9.8,5.7c2.7,2.4,4.7,5.2,6.1,8.4c1.4,3.2,2.1,6.6,2.1,10.1h-14.9c0-2.1-0.3-4-1-5.8c-0.7-1.8-1.6-3.3-3-4.6
			c-1.3-1.3-3-2.3-5.1-3c-2-0.7-4.5-1.1-7.3-1.1c-2.6,0-4.9,0.3-6.9,0.9c-1.9,0.6-3.5,1.4-4.8,2.5c-1.3,1.1-2.2,2.3-2.8,3.8
			c-0.6,1.5-0.9,3-0.9,4.7c0,3.2,1.5,5.9,4.5,8c3,2.1,7.6,4.1,13.8,5.9c4.8,1.4,9,3,12.6,4.7c3.5,1.7,6.5,3.7,8.8,5.9
			c2.3,2.2,4.1,4.7,5.2,7.4c1.1,2.7,1.7,5.8,1.7,9.3c0,3.6-0.7,6.9-2.2,9.8c-1.4,2.9-3.5,5.4-6.1,7.4c-2.7,2-5.9,3.6-9.7,4.7
			c-3.8,1.1-8,1.6-12.7,1.6c-4.1,0-8.2-0.6-12.2-1.7c-4-1.1-7.6-2.8-10.8-5.1s-5.8-5.1-7.7-8.5c-2-3.4-2.9-7.4-2.9-11.9h15
			c0,2.7,0.5,5.1,1.4,7c1,2,2.3,3.5,4,4.8c1.7,1.2,3.7,2.1,5.9,2.7c2.3,0.6,4.7,0.9,7.4,0.9c5.2,0,9.1-1.1,11.7-3.2
			C453.1,887.4,454.4,884.6,454.4,881.2z"/>
		<path fill="#1976D2" d="M478.4,870.8c0-4.7,0.7-9,2-12.9c1.4-4,3.3-7.4,5.9-10.3c2.5-2.9,5.6-5.2,9.3-6.9
			c3.7-1.7,7.8-2.5,12.5-2.5c4.7,0,8.9,0.8,12.6,2.5c3.7,1.7,6.8,3.9,9.4,6.9c2.5,2.9,4.5,6.4,5.8,10.3c1.3,4,2,8.3,2,12.9v1.2
			c0,4.7-0.7,9-2,12.9c-1.3,4-3.3,7.4-5.8,10.3c-2.5,2.9-5.7,5.2-9.3,6.8c-3.7,1.6-7.9,2.5-12.5,2.5c-4.7,0-8.9-0.8-12.6-2.5
			c-3.7-1.6-6.8-3.9-9.3-6.8c-2.5-2.9-4.5-6.3-5.9-10.3c-1.4-4-2-8.3-2-12.9V870.8z M492.8,872c0,2.9,0.3,5.6,0.9,8.2
			c0.6,2.6,1.5,4.8,2.8,6.7c1.3,1.9,2.9,3.4,4.8,4.5c2,1.1,4.3,1.7,6.9,1.7c2.6,0,4.9-0.6,6.9-1.7c2-1.1,3.5-2.6,4.8-4.5
			c1.2-1.9,2.2-4.1,2.8-6.7c0.6-2.6,0.9-5.3,0.9-8.2v-1.2c0-2.8-0.3-5.5-0.9-8.1c-0.6-2.5-1.5-4.8-2.8-6.7c-1.3-1.9-2.9-3.4-4.8-4.6
			c-2-1.1-4.3-1.7-6.9-1.7c-2.7,0-5,0.6-6.9,1.7c-1.9,1.1-3.5,2.7-4.8,4.6c-1.3,1.9-2.2,4.1-2.8,6.7c-0.6,2.5-0.9,5.2-0.9,8.1V872z"
			/>
		<path fill="#1976D2" d="M565.3,903.3H551v-90.8h14.4V903.3z"/>
		<path fill="#1976D2" d="M619.7,897.1c-2,2.4-4.5,4.2-7.5,5.5s-6.5,2-10.5,2c-3.2,0-6-0.4-8.6-1.3c-2.6-0.9-4.8-2.3-6.7-4.2
			c-1.9-1.9-3.3-4.4-4.3-7.4c-1-3-1.5-6.6-1.5-10.8v-41.4H595v41.5c0,2.3,0.3,4.2,0.8,5.8s1.3,2.7,2.2,3.7c0.9,0.9,2,1.6,3.2,2
			c1.2,0.4,2.5,0.6,3.8,0.6c3.7,0,6.7-0.7,9-2c2.3-1.3,4-3.2,5.1-5.5v-45.9h14.4v64h-13.5L619.7,897.1z"/>
		<path fill="#1976D2" d="M666.3,823.8v15.5h11.3V850h-11.3v35.7c0,1.5,0.2,2.6,0.5,3.5c0.3,0.9,0.8,1.6,1.4,2.1
			c0.6,0.5,1.3,0.8,2.1,1c0.8,0.2,1.7,0.3,2.7,0.3c1,0,1.9-0.1,2.9-0.2c0.9-0.1,1.6-0.3,2.2-0.4v11.1c-1.1,0.3-2.5,0.6-4,0.9
			s-3.3,0.4-5.5,0.4c-2.4,0-4.6-0.3-6.6-0.9c-2-0.6-3.8-1.7-5.3-3.1c-1.5-1.4-2.6-3.3-3.5-5.6c-0.8-2.3-1.2-5.1-1.2-8.4V850h-10.5
			v-10.6h10.5v-15.5H666.3z"/>
		<path fill="#1976D2" d="M688.6,822.8c0-2.2,0.7-4,2.1-5.5c1.4-1.5,3.4-2.2,6-2.2s4.6,0.7,6,2.2c1.4,1.5,2.1,3.3,2.1,5.5
			c0,2.2-0.7,4-2.1,5.4c-1.4,1.4-3.4,2.2-6,2.2s-4.6-0.7-6-2.2C689.3,826.7,688.6,824.9,688.6,822.8z M703.8,903.3h-14.4v-64h14.4
			V903.3z"/>
		<path fill="#1976D2" d="M716.8,870.8c0-4.7,0.7-9,2-12.9c1.4-4,3.3-7.4,5.9-10.3c2.5-2.9,5.6-5.2,9.3-6.9
			c3.7-1.7,7.8-2.5,12.5-2.5c4.7,0,8.9,0.8,12.6,2.5c3.7,1.7,6.8,3.9,9.4,6.9c2.5,2.9,4.5,6.4,5.8,10.3c1.3,4,2,8.3,2,12.9v1.2
			c0,4.7-0.7,9-2,12.9c-1.3,4-3.3,7.4-5.8,10.3c-2.5,2.9-5.7,5.2-9.3,6.8c-3.7,1.6-7.9,2.5-12.5,2.5c-4.7,0-8.9-0.8-12.6-2.5
			c-3.7-1.6-6.8-3.9-9.3-6.8c-2.5-2.9-4.5-6.3-5.9-10.3c-1.4-4-2-8.3-2-12.9V870.8z M731.1,872c0,2.9,0.3,5.6,0.9,8.2
			c0.6,2.6,1.5,4.8,2.8,6.7c1.3,1.9,2.9,3.4,4.8,4.5c2,1.1,4.3,1.7,6.9,1.7c2.6,0,4.9-0.6,6.9-1.7c2-1.1,3.5-2.6,4.8-4.5
			c1.2-1.9,2.2-4.1,2.8-6.7c0.6-2.6,0.9-5.3,0.9-8.2v-1.2c0-2.8-0.3-5.5-0.9-8.1c-0.6-2.5-1.5-4.8-2.8-6.7c-1.3-1.9-2.9-3.4-4.8-4.6
			c-2-1.1-4.3-1.7-6.9-1.7c-2.7,0-5,0.6-6.9,1.7c-1.9,1.1-3.5,2.7-4.8,4.6c-1.3,1.9-2.2,4.1-2.8,6.7c-0.6,2.5-0.9,5.2-0.9,8.1V872z"
			/>
		<path fill="#1976D2" d="M801.7,839.4l0.4,7.4c2.2-2.7,4.9-4.8,8.1-6.3c3.2-1.5,6.7-2.2,10.5-2.2c3.1,0,5.9,0.4,8.4,1.3
			c2.5,0.8,4.6,2.2,6.4,4.1c1.8,1.9,3.1,4.4,4.1,7.4s1.4,6.7,1.4,11.1v41.3h-14.4v-41.4c0-2.2-0.2-4.1-0.7-5.6
			c-0.5-1.5-1.2-2.7-2.2-3.7c-0.9-0.9-2.1-1.6-3.5-2c-1.4-0.4-3-0.6-4.8-0.6c-3,0-5.5,0.7-7.7,2.1s-3.9,3.3-5.2,5.7v45.5h-14.4v-64
			H801.7z"/>
		<path fill="#1976D2" d="M891.6,886c0-1-0.2-2-0.5-2.9s-1-1.7-2-2.5s-2.4-1.5-4.2-2.2c-1.8-0.7-4.1-1.3-7-1.9
			c-3.4-0.7-6.6-1.6-9.4-2.7c-2.8-1.1-5.2-2.4-7.2-3.9c-2-1.5-3.6-3.3-4.7-5.4c-1.1-2-1.7-4.4-1.7-7.1c0-2.6,0.6-5.1,1.7-7.4
			c1.1-2.3,2.8-4.4,4.9-6.2c2.1-1.8,4.8-3.2,7.8-4.2c3.1-1,6.5-1.6,10.3-1.6c4,0,7.6,0.5,10.7,1.6c3.2,1,5.9,2.5,8.1,4.3
			c2.2,1.8,3.9,4,5.1,6.5c1.2,2.5,1.7,5.2,1.7,8h-14.4c0-1.2-0.2-2.4-0.7-3.6c-0.5-1.2-1.2-2.2-2.1-3.1c-0.9-0.9-2.1-1.6-3.5-2.2
			c-1.4-0.5-3-0.8-4.9-0.8c-1.8,0-3.4,0.2-4.7,0.7c-1.3,0.5-2.5,1-3.3,1.8s-1.5,1.6-2,2.5c-0.4,1-0.7,2-0.7,3s0.2,2,0.6,2.8
			c0.4,0.8,1.1,1.6,2.1,2.2c1,0.7,2.4,1.3,4,1.9c1.7,0.6,3.8,1.1,6.4,1.7c3.7,0.8,7,1.7,10,2.8c2.9,1.1,5.4,2.4,7.5,3.9
			c2,1.5,3.6,3.4,4.6,5.4c1.1,2.1,1.6,4.6,1.6,7.4c0,2.8-0.6,5.4-1.8,7.8c-1.2,2.4-3,4.4-5.2,6.1c-2.3,1.7-5,3-8.2,4
			c-3.2,0.9-6.7,1.4-10.6,1.4c-4.4,0-8.2-0.6-11.6-1.9c-3.4-1.2-6.2-2.9-8.5-4.9c-2.3-2-4-4.3-5.2-6.8c-1.2-2.5-1.7-5.1-1.7-7.8h14
			c0.1,2,0.6,3.6,1.4,5c0.8,1.3,1.8,2.4,3,3.3c1.2,0.8,2.6,1.4,4.1,1.8c1.5,0.4,3.1,0.6,4.7,0.6c3.8,0,6.7-0.7,8.6-2.2
			C890.6,890.2,891.6,888.3,891.6,886z"/>
	</g>
</g>
</svg>
