<?xml version="1.0" encoding="utf-8"?>
<!-- Generator: Adobe Illustrator 18.0.0, SVG Export Plug-In . SVG Version: 6.00 Build 0)  -->
<!DOCTYPE svg PUBLIC "-//W3C//DTD SVG 1.1//EN" "http://www.w3.org/Graphics/SVG/1.1/DTD/svg11.dtd">
<svg version="1.1" id="Layer_1" xmlns="http://www.w3.org/2000/svg" xmlns:xlink="http://www.w3.org/1999/xlink" x="0px" y="0px"
	 viewBox="0 0 893.9 534.2" enable-background="new 0 0 893.9 534.2" xml:space="preserve">
<path fill="#ECF0F1" d="M0,135.6c0,0,168.7,95.2,425.9,0c267.4-99,468,0,468,0s-229.8-55.5-456,39.8C243.4,257.3,84.3,201.9,0,135.6
	z"/>
<path fill="#ECF0F1" d="M0,248.6c0,0,168.7,95.2,425.9,0c267.4-99,468,0,468,0s-229.8-55.5-456,39.8C243.4,370.3,84.3,314.9,0,248.6
	z"/>
<text transform="matrix(1 0 0 1 9.2555 534.1775)" fill="#1976D2" font-family="'Roboto-Medium'" font-size="750">EZ</text>
<path fill="#ECF0F1" d="M0,360.6c0,0,168.7,95.2,425.9,0c267.4-99,468,0,468,0s-229.8-55.5-456,39.8C243.4,482.3,84.3,426.9,0,360.6
	z"/>
</svg>
