<svg xmlns="http://www.w3.org/2000/svg" viewBox="0 0 350 230" enable-background="new 0 0 350 230"><path fill="#293171" d="M0 0h350v230h-350z"/><path fill="#7AAAD0" d="M176.6 73.3c-56.4-3-102.9 7.7-103.8 24-.9 16.3 44.2 31.9 100.6 35s102.9-7.6 103.8-23.9c.9-16.3-44.2-32-100.6-35.1zm93.4 33.7c-.7 15.1-43.8 25.3-96.2 22.7-52.4-2.6-94.3-16.9-93.5-32 .7-15.1 43.8-25.3 96.2-22.7 52.4 2.6 94.3 16.9 93.5 32z"/><path fill="#FACF41" stroke="#fff" stroke-width="3" stroke-miterlimit="10" d="M198.9 57.9l-1.9 35.3 35.3-1.7-26.4 23.6 26.2 23.8-35.3-1.9 1.7 35.3-23.6-26.4-23.8 26.2 1.9-35.3-35.3 1.7 26.4-23.6-26.2-23.8 35.3 1.9-1.7-35.3 23.6 26.4zm-12-3.7l5.2 35 34.3-8.7-21.1 28.4 30.5 18-35 5.2 8.7 34.3-28.4-21.1-18 30.5-5.2-35-34.3 8.7 21.1-28.4-30.5-18 35-5.2-8.7-34.3 28.4 21.1zm-12.1-1.1l12 33.3 31.9-15.3-15.1 32 33.3 11.7-33.3 12 15.3 31.9-32-15.1-11.7 33.3-12-33.3-31.9 15.3 15.1-32-33.3-11.7 33.3-12-15.3-31.9 32 15.1zm-11 1l17.6 30.6 28.7-20.7-9.1 34.1 34.9 5.7-30.6 17.6 20.7 28.7-34.1-9.1-5.7 34.9-17.6-30.6-28.7 20.7 9.1-34.1-34.9-5.7 30.6-17.6-20.7-28.7 34.1 9.1z"/><path fill="#FACF41" d="M174.5 164.8c-27.3 0-49.4-22.2-49.4-49.4s22.1-49.4 49.4-49.4 49.4 22.2 49.4 49.4-22.2 49.4-49.4 49.4z"/><path fill="#fff" d="M174.5 67.4c26.5 0 48 21.5 48 48s-21.5 48-48 48-48-21.5-48-48 21.4-48 48-48m0-2.8c-13.6 0-26.3 5.3-35.9 14.9-9.6 9.6-14.9 22.4-14.9 35.9s5.3 26.3 14.9 35.9c9.6 9.6 22.4 14.9 35.9 14.9 13.6 0 26.3-5.3 35.9-14.9 9.6-9.6 14.9-22.4 14.9-35.9s-5.3-26.3-14.9-35.9c-9.6-9.6-22.4-14.9-35.9-14.9z"/><path fill="#293171" d="M198.9 146.6h8.5l-32.3-62.5-32.2 62.5h8.4l23.8-46.1z"/><path fill="#7AAAD0" d="M272.7 115.8c-2.2-.2-4.6-1-6.3-1.8-11.5 11.1-48.8 17.8-92.5 15.7-40.5-2-74.8-11-87.9-22-1.3.4-2.6.8-4 1.1-.5.1-1 .2-1.6.4 15 11.4 50.9 20.7 93.1 23 47 2.6 87.1-4.4 99.7-16.3-.3.1-.4 0-.5-.1z"/></svg>