<?xml version="1.0" encoding="utf-8"?>
<!-- Generator: Adobe Illustrator 18.0.0, SVG Export Plug-In . SVG Version: 6.00 Build 0)  -->
<!DOCTYPE svg PUBLIC "-//W3C//DTD SVG 1.1//EN" "http://www.w3.org/Graphics/SVG/1.1/DTD/svg11.dtd">
<svg version="1.1" id="Layer_1" xmlns="http://www.w3.org/2000/svg" xmlns:xlink="http://www.w3.org/1999/xlink" x="0px" y="0px"
	 viewBox="0 0 420 315" enable-background="new 0 0 420 315" xml:space="preserve">
<g>
	<rect x="5" y="3.9" fill="#FFFFFF" width="410" height="307.5"/>
	<g>
		<polyline fill="none" stroke="#000000" stroke-width="2" stroke-linecap="square" stroke-linejoin="round" points="415,305.4 
			415,311.4 409,311.4 		"/>
		
			<line fill="none" stroke="#000000" stroke-width="2" stroke-linecap="square" stroke-linejoin="round" stroke-dasharray="12.0606,12.0606" x1="396.9" y1="311.4" x2="17" y2="311.4"/>
		<polyline fill="none" stroke="#000000" stroke-width="2" stroke-linecap="square" stroke-linejoin="round" points="11,311.4 
			5,311.4 5,305.4 		"/>
		
			<line fill="none" stroke="#000000" stroke-width="2" stroke-linecap="square" stroke-linejoin="round" stroke-dasharray="11.82,11.82" x1="5" y1="293.6" x2="5" y2="15.8"/>
		<polyline fill="none" stroke="#000000" stroke-width="2" stroke-linecap="square" stroke-linejoin="round" points="5,9.9 5,3.9 
			11,3.9 		"/>
		
			<line fill="none" stroke="#000000" stroke-width="2" stroke-linecap="square" stroke-linejoin="round" stroke-dasharray="12.0606,12.0606" x1="23.1" y1="3.9" x2="403" y2="3.9"/>
		<polyline fill="none" stroke="#000000" stroke-width="2" stroke-linecap="square" stroke-linejoin="round" points="409,3.9 
			415,3.9 415,9.9 		"/>
		
			<line fill="none" stroke="#000000" stroke-width="2" stroke-linecap="square" stroke-linejoin="round" stroke-dasharray="11.82,11.82" x1="415" y1="21.7" x2="415" y2="299.5"/>
	</g>
</g>
<rect x="7" y="203.9" fill="#7AC943" width="406.1" height="105.4"/>
<g>
	<g>
		<g>
			<path fill="#1976D2" d="M24.1,227.2v-17h5.8c0.9,0,1.7,0.1,2.5,0.3c0.7,0.2,1.4,0.5,1.9,0.8c0.5,0.4,0.9,0.9,1.2,1.4
				c0.3,0.6,0.4,1.3,0.4,2.1c0,0.8-0.2,1.5-0.6,2.1c-0.4,0.6-1,1.1-1.8,1.4c0.5,0.1,0.9,0.3,1.3,0.6c0.4,0.3,0.7,0.6,0.9,0.9
				c0.2,0.3,0.4,0.7,0.5,1.1c0.1,0.4,0.2,0.8,0.2,1.3c0,0.8-0.1,1.5-0.4,2.2c-0.3,0.6-0.7,1.1-1.2,1.6c-0.5,0.4-1.1,0.7-1.9,0.9
				c-0.7,0.2-1.6,0.3-2.5,0.3L24.1,227.2L24.1,227.2z M27,217.3h2.9c0.9,0,1.6-0.2,2.2-0.6c0.5-0.4,0.8-1,0.8-1.8
				c0-0.8-0.2-1.4-0.7-1.8c-0.5-0.4-1.2-0.6-2.2-0.6H27L27,217.3L27,217.3z M27,219.5v5.3h3.3c0.5,0,0.9-0.1,1.3-0.2
				c0.4-0.1,0.7-0.3,0.9-0.5c0.2-0.2,0.4-0.5,0.6-0.8c0.1-0.3,0.2-0.7,0.2-1.1c0-0.8-0.2-1.5-0.7-2c-0.4-0.5-1.2-0.7-2.2-0.7H27z"/>
			<path fill="#1976D2" d="M45.5,217.1c-0.2,0-0.4-0.1-0.6-0.1c-0.2,0-0.4,0-0.6,0c-0.7,0-1.2,0.1-1.7,0.4c-0.4,0.3-0.7,0.6-1,1.1
				v8.7h-2.8v-12.7h2.7l0.1,1.4c0.3-0.5,0.7-0.9,1.2-1.2c0.5-0.3,1-0.4,1.7-0.4c0.2,0,0.3,0,0.6,0.1c0.2,0,0.4,0.1,0.5,0.1
				L45.5,217.1z"/>
			<path fill="#1976D2" d="M52.7,227.4c-0.9,0-1.8-0.2-2.5-0.5c-0.7-0.3-1.4-0.7-1.9-1.3c-0.5-0.5-0.9-1.2-1.2-1.9
				c-0.3-0.7-0.4-1.6-0.4-2.4v-0.5c0-1,0.1-1.9,0.4-2.7c0.3-0.8,0.7-1.5,1.2-2.1c0.5-0.6,1.1-1,1.8-1.3s1.4-0.5,2.3-0.5
				c0.9,0,1.7,0.2,2.4,0.5c0.7,0.3,1.2,0.7,1.7,1.3s0.8,1.2,1,2c0.2,0.8,0.3,1.6,0.3,2.5v1.2h-8.3c0,0.5,0.1,0.9,0.3,1.4
				c0.2,0.4,0.4,0.8,0.7,1.1c0.3,0.3,0.6,0.5,1,0.7c0.4,0.2,0.8,0.3,1.3,0.3c0.7,0,1.3-0.1,1.8-0.4c0.5-0.3,1-0.7,1.4-1.2l1.5,1.5
				c-0.2,0.3-0.5,0.6-0.8,0.9c-0.3,0.3-0.7,0.5-1.1,0.8s-0.9,0.4-1.4,0.5C53.9,227.3,53.3,227.4,52.7,227.4z M52.4,216.5
				c-0.8,0-1.4,0.3-1.9,0.8c-0.5,0.5-0.8,1.3-0.9,2.3H55v-0.2c0-0.4-0.1-0.7-0.2-1.1c-0.1-0.3-0.2-0.7-0.5-0.9
				c-0.2-0.3-0.5-0.5-0.8-0.6C53.2,216.6,52.8,216.5,52.4,216.5z"/>
			<path fill="#1976D2" d="M67.5,227.2c-0.1-0.1-0.1-0.3-0.2-0.5c-0.1-0.2-0.1-0.4-0.1-0.7c-0.2,0.2-0.4,0.4-0.6,0.6
				c-0.2,0.2-0.5,0.3-0.8,0.5c-0.3,0.1-0.6,0.2-0.9,0.3c-0.3,0.1-0.7,0.1-1,0.1c-0.6,0-1.2-0.1-1.7-0.3c-0.5-0.2-1-0.5-1.4-0.8
				c-0.4-0.3-0.7-0.7-0.9-1.2c-0.2-0.5-0.3-1-0.3-1.5c0-0.7,0.1-1.3,0.4-1.8c0.3-0.5,0.6-1,1.1-1.3c0.5-0.3,1.1-0.6,1.8-0.8
				c0.7-0.2,1.5-0.3,2.4-0.3h1.8v-0.8c0-0.7-0.2-1.2-0.6-1.6c-0.4-0.4-0.9-0.6-1.7-0.6c-0.3,0-0.6,0-0.9,0.1s-0.5,0.2-0.7,0.4
				c-0.2,0.2-0.3,0.3-0.4,0.5c-0.1,0.2-0.2,0.4-0.2,0.7h-2.8c0-0.5,0.1-1,0.4-1.4c0.2-0.5,0.6-0.9,1-1.2c0.5-0.4,1-0.7,1.6-0.9
				c0.6-0.2,1.4-0.3,2.2-0.3c0.7,0,1.4,0.1,2,0.3c0.6,0.2,1.1,0.5,1.6,0.8c0.4,0.4,0.8,0.8,1,1.4c0.2,0.5,0.4,1.2,0.4,1.9v5.6
				c0,1.1,0.2,2.1,0.5,2.7v0.2L67.5,227.2L67.5,227.2z M64.4,225.1c0.3,0,0.6,0,0.9-0.1c0.3-0.1,0.5-0.2,0.8-0.3s0.4-0.3,0.6-0.5
				c0.2-0.2,0.3-0.4,0.4-0.6v-2.4h-1.5c-1.1,0-1.8,0.2-2.4,0.6s-0.8,0.9-0.8,1.6c0,0.3,0,0.5,0.1,0.7c0.1,0.2,0.2,0.4,0.4,0.6
				c0.2,0.2,0.4,0.3,0.6,0.4C63.8,225.1,64.1,225.1,64.4,225.1z"/>
			<path fill="#1976D2" d="M76.5,211.4v3.1h2.2v2.1h-2.2v7.1c0,0.3,0,0.5,0.1,0.7c0.1,0.2,0.2,0.3,0.3,0.4c0.1,0.1,0.3,0.2,0.4,0.2
				c0.2,0,0.3,0.1,0.5,0.1c0.2,0,0.4,0,0.6,0c0.2,0,0.3-0.1,0.4-0.1v2.2c-0.2,0.1-0.5,0.1-0.8,0.2c-0.3,0.1-0.7,0.1-1.1,0.1
				c-0.5,0-0.9-0.1-1.3-0.2c-0.4-0.1-0.7-0.3-1-0.6c-0.3-0.3-0.5-0.6-0.7-1.1c-0.2-0.5-0.2-1-0.2-1.7v-7.2h-2.1v-2.1h2.1v-3.1
				C73.7,211.4,76.5,211.4,76.5,211.4z"/>
			<path fill="#1976D2" d="M83.7,215.9c0.4-0.5,1-0.9,1.5-1.2c0.6-0.3,1.3-0.4,2-0.4c0.6,0,1.2,0.1,1.7,0.3c0.5,0.2,0.9,0.5,1.3,0.8
				c0.4,0.4,0.6,0.9,0.8,1.5c0.2,0.6,0.3,1.3,0.3,2.2v8.1h-2.8V219c0-0.9-0.2-1.5-0.6-1.9c-0.4-0.4-0.9-0.5-1.7-0.5
				c-0.6,0-1.1,0.1-1.5,0.4c-0.4,0.3-0.8,0.6-1,1.1v9h-2.8v-18h2.8L83.7,215.9L83.7,215.9z"/>
			<path fill="#1976D2" d="M99.8,227.4c-0.9,0-1.8-0.2-2.5-0.5c-0.7-0.3-1.4-0.7-1.9-1.3c-0.5-0.5-0.9-1.2-1.2-1.9
				c-0.3-0.7-0.4-1.6-0.4-2.4v-0.5c0-1,0.1-1.9,0.4-2.7c0.3-0.8,0.7-1.5,1.2-2.1c0.5-0.6,1.1-1,1.8-1.3s1.4-0.5,2.3-0.5
				c0.9,0,1.7,0.2,2.4,0.5c0.7,0.3,1.2,0.7,1.7,1.3c0.4,0.6,0.8,1.2,1,2c0.2,0.8,0.3,1.6,0.3,2.5v1.2h-8.3c0,0.5,0.1,0.9,0.3,1.4
				c0.2,0.4,0.4,0.8,0.7,1.1s0.6,0.5,1,0.7c0.4,0.2,0.8,0.3,1.3,0.3c0.7,0,1.3-0.1,1.8-0.4c0.5-0.3,1-0.7,1.4-1.2l1.5,1.5
				c-0.2,0.3-0.5,0.6-0.8,0.9c-0.3,0.3-0.7,0.5-1.1,0.8c-0.4,0.2-0.9,0.4-1.4,0.5C101,227.3,100.4,227.4,99.8,227.4z M99.5,216.5
				c-0.8,0-1.4,0.3-1.9,0.8s-0.8,1.3-0.9,2.3h5.4v-0.2c0-0.4-0.1-0.7-0.2-1.1c-0.1-0.3-0.2-0.7-0.5-0.9c-0.2-0.3-0.5-0.5-0.8-0.6
				C100.3,216.6,99.9,216.5,99.5,216.5z"/>
		</g>
		<path fill="#ECF0F1" d="M15.5,244.7c0,0,18,10.2,45.4,0c28.5-10.6,49.9,0,49.9,0s-24.5-5.9-48.7,4.2
			C41.4,257.7,24.5,251.8,15.5,244.7"/>
		<path fill="#ECF0F1" d="M15.5,256.7c0,0,18,10.2,45.4,0c28.5-10.6,49.9,0,49.9,0s-24.5-5.9-48.7,4.2
			C41.4,269.7,24.5,263.8,15.5,256.7"/>
		<g>
			<path fill="#1976D2" d="M55.5,261.8H32.1v17.5h27.3v7.9H22.2v-56.9h36.9v8h-27V254h23.4V261.8z"/>
			<path fill="#1976D2" d="M76.8,279.3h30.4v7.9H64.8v-6.4l29.4-42.5H65v-8h41.2v6.2L76.8,279.3z"/>
		</g>
		<path fill="#ECF0F1" d="M15.5,268.7c0,0,18,10.2,45.4,0c28.5-10.6,49.9,0,49.9,0s-24.5-5.9-48.7,4.2
			C41.4,281.7,24.5,275.8,15.5,268.7"/>
		<g>
			<path fill="#1976D2" d="M27.8,302.1h-1.5v-3.9h-3.9v3.9h-1.5v-8.8h1.5v3.7h3.9v-3.7h1.5L27.8,302.1L27.8,302.1z"/>
			<path fill="#1976D2" d="M29.2,298.7c0-0.5,0.1-0.9,0.2-1.3c0.1-0.4,0.3-0.8,0.6-1.1c0.3-0.3,0.6-0.5,1-0.7s0.8-0.3,1.3-0.3
				s0.9,0.1,1.3,0.3s0.7,0.4,1,0.7c0.3,0.3,0.5,0.7,0.6,1.1c0.1,0.4,0.2,0.9,0.2,1.3v0.1c0,0.5-0.1,0.9-0.2,1.3
				c-0.1,0.4-0.3,0.8-0.6,1.1c-0.3,0.3-0.6,0.5-1,0.7c-0.4,0.2-0.8,0.3-1.3,0.3c-0.5,0-0.9-0.1-1.3-0.3c-0.4-0.2-0.7-0.4-1-0.7
				s-0.5-0.6-0.6-1.1s-0.2-0.9-0.2-1.3L29.2,298.7L29.2,298.7z M30.7,298.9c0,0.3,0,0.6,0.1,0.8c0.1,0.3,0.2,0.5,0.3,0.7
				c0.1,0.2,0.3,0.3,0.5,0.5c0.2,0.1,0.4,0.2,0.7,0.2s0.5-0.1,0.7-0.2c0.2-0.1,0.4-0.3,0.5-0.5c0.1-0.2,0.2-0.4,0.3-0.7
				s0.1-0.5,0.1-0.8v-0.1c0-0.3,0-0.6-0.1-0.8c-0.1-0.3-0.2-0.5-0.3-0.7c-0.1-0.2-0.3-0.3-0.5-0.5c-0.2-0.1-0.4-0.2-0.7-0.2
				c-0.3,0-0.5,0.1-0.7,0.2c-0.2,0.1-0.4,0.3-0.5,0.5c-0.1,0.2-0.2,0.4-0.3,0.7c-0.1,0.3-0.1,0.5-0.1,0.8V298.9z"/>
			<path fill="#1976D2" d="M37.9,295.5l0,0.7c0.2-0.3,0.5-0.5,0.8-0.6s0.7-0.2,1.1-0.2c0.4,0,0.8,0.1,1.1,0.2
				c0.3,0.2,0.6,0.4,0.7,0.8c0.2-0.3,0.5-0.6,0.8-0.7s0.7-0.3,1.2-0.3c0.3,0,0.6,0,0.9,0.1c0.3,0.1,0.5,0.2,0.7,0.4
				c0.2,0.2,0.3,0.5,0.4,0.8c0.1,0.3,0.1,0.7,0.1,1.1v4.2h-1.5v-4.3c0-0.2,0-0.4-0.1-0.6c-0.1-0.2-0.1-0.3-0.2-0.4
				c-0.1-0.1-0.2-0.2-0.4-0.2s-0.3-0.1-0.5-0.1c-0.3,0-0.6,0.1-0.8,0.3c-0.2,0.2-0.4,0.4-0.4,0.7c0,0,0,0,0,0.1s0,0,0,0.1v4.4h-1.5
				v-4.2c0-0.2,0-0.4-0.1-0.6c-0.1-0.2-0.1-0.3-0.2-0.4c-0.1-0.1-0.2-0.2-0.4-0.2c-0.1,0-0.3-0.1-0.5-0.1c-0.3,0-0.6,0.1-0.8,0.2
				s-0.4,0.3-0.5,0.5v4.8h-1.5v-6.6H37.9z"/>
			<path fill="#1976D2" d="M50.2,302.2c-0.5,0-0.9-0.1-1.3-0.2c-0.4-0.2-0.7-0.4-1-0.7s-0.5-0.6-0.6-1c-0.1-0.4-0.2-0.8-0.2-1.3
				v-0.2c0-0.5,0.1-1,0.2-1.4c0.2-0.4,0.4-0.8,0.6-1.1s0.6-0.5,0.9-0.7c0.4-0.2,0.7-0.2,1.2-0.2c0.5,0,0.9,0.1,1.2,0.2
				c0.3,0.2,0.6,0.4,0.9,0.7c0.2,0.3,0.4,0.6,0.5,1s0.2,0.8,0.2,1.3v0.6h-4.3c0,0.3,0.1,0.5,0.2,0.7c0.1,0.2,0.2,0.4,0.4,0.6
				c0.2,0.2,0.3,0.3,0.5,0.4c0.2,0.1,0.4,0.1,0.7,0.1c0.4,0,0.7-0.1,1-0.2c0.3-0.1,0.5-0.3,0.7-0.6l0.8,0.8
				c-0.1,0.2-0.2,0.3-0.4,0.5c-0.2,0.1-0.3,0.3-0.5,0.4c-0.2,0.1-0.4,0.2-0.7,0.3C50.9,302.2,50.6,302.2,50.2,302.2z M50.1,296.6
				c-0.4,0-0.7,0.1-1,0.4c-0.2,0.3-0.4,0.7-0.5,1.2h2.8v-0.1c0-0.2,0-0.4-0.1-0.6c-0.1-0.2-0.1-0.3-0.2-0.5
				c-0.1-0.1-0.2-0.2-0.4-0.3C50.5,296.6,50.3,296.6,50.1,296.6z"/>
			<path fill="#1976D2" d="M61.9,299.8c0-0.2,0-0.3-0.1-0.5c-0.1-0.1-0.1-0.3-0.3-0.4c-0.1-0.1-0.3-0.2-0.6-0.3
				c-0.2-0.1-0.6-0.2-0.9-0.3c-0.4-0.1-0.8-0.3-1.2-0.4s-0.7-0.3-0.9-0.6c-0.3-0.2-0.5-0.5-0.6-0.7c-0.1-0.3-0.2-0.6-0.2-1
				c0-0.4,0.1-0.7,0.2-1c0.2-0.3,0.4-0.6,0.6-0.8c0.3-0.2,0.6-0.4,1-0.5s0.8-0.2,1.3-0.2c0.5,0,0.9,0.1,1.3,0.2s0.7,0.3,1,0.6
				c0.3,0.2,0.5,0.5,0.6,0.9c0.1,0.3,0.2,0.7,0.2,1h-1.5c0-0.2,0-0.4-0.1-0.6c-0.1-0.2-0.2-0.3-0.3-0.5c-0.1-0.1-0.3-0.2-0.5-0.3
				c-0.2-0.1-0.5-0.1-0.7-0.1c-0.3,0-0.5,0-0.7,0.1c-0.2,0.1-0.4,0.1-0.5,0.3c-0.1,0.1-0.2,0.2-0.3,0.4c-0.1,0.2-0.1,0.3-0.1,0.5
				c0,0.3,0.2,0.6,0.5,0.8c0.3,0.2,0.8,0.4,1.4,0.6c0.5,0.1,0.9,0.3,1.3,0.5c0.4,0.2,0.7,0.4,0.9,0.6c0.2,0.2,0.4,0.5,0.5,0.8
				s0.2,0.6,0.2,1c0,0.4-0.1,0.7-0.2,1c-0.1,0.3-0.4,0.6-0.6,0.8c-0.3,0.2-0.6,0.4-1,0.5c-0.4,0.1-0.8,0.2-1.3,0.2
				c-0.4,0-0.8-0.1-1.3-0.2c-0.4-0.1-0.8-0.3-1.1-0.5c-0.3-0.2-0.6-0.5-0.8-0.9c-0.2-0.3-0.3-0.8-0.3-1.2h1.5c0,0.3,0.1,0.5,0.1,0.7
				c0.1,0.2,0.2,0.4,0.4,0.5c0.2,0.1,0.4,0.2,0.6,0.3c0.2,0.1,0.5,0.1,0.8,0.1c0.5,0,0.9-0.1,1.2-0.3
				C61.7,300.4,61.9,300.1,61.9,299.8z"/>
			<path fill="#1976D2" d="M64.3,298.7c0-0.5,0.1-0.9,0.2-1.3c0.1-0.4,0.3-0.8,0.6-1.1c0.3-0.3,0.6-0.5,1-0.7s0.8-0.3,1.3-0.3
				s0.9,0.1,1.3,0.3s0.7,0.4,1,0.7c0.3,0.3,0.5,0.7,0.6,1.1c0.1,0.4,0.2,0.9,0.2,1.3v0.1c0,0.5-0.1,0.9-0.2,1.3
				c-0.1,0.4-0.3,0.8-0.6,1.1s-0.6,0.5-1,0.7c-0.4,0.2-0.8,0.3-1.3,0.3c-0.5,0-0.9-0.1-1.3-0.3c-0.4-0.2-0.7-0.4-1-0.7
				c-0.3-0.3-0.5-0.6-0.6-1.1c-0.1-0.4-0.2-0.9-0.2-1.3L64.3,298.7L64.3,298.7z M65.8,298.9c0,0.3,0,0.6,0.1,0.8
				c0.1,0.3,0.2,0.5,0.3,0.7c0.1,0.2,0.3,0.3,0.5,0.5c0.2,0.1,0.4,0.2,0.7,0.2s0.5-0.1,0.7-0.2c0.2-0.1,0.4-0.3,0.5-0.5
				c0.1-0.2,0.2-0.4,0.3-0.7s0.1-0.5,0.1-0.8v-0.1c0-0.3,0-0.6-0.1-0.8c-0.1-0.3-0.2-0.5-0.3-0.7c-0.1-0.2-0.3-0.3-0.5-0.5
				c-0.2-0.1-0.4-0.2-0.7-0.2c-0.3,0-0.5,0.1-0.7,0.2c-0.2,0.1-0.4,0.3-0.5,0.5c-0.1,0.2-0.2,0.4-0.3,0.7c-0.1,0.3-0.1,0.5-0.1,0.8
				V298.9L65.8,298.9z"/>
			<path fill="#1976D2" d="M73.2,302.1h-1.5v-9.3h1.5L73.2,302.1L73.2,302.1z"/>
			<path fill="#1976D2" d="M78.8,301.4c-0.2,0.2-0.5,0.4-0.8,0.6s-0.7,0.2-1.1,0.2c-0.3,0-0.6,0-0.9-0.1c-0.3-0.1-0.5-0.2-0.7-0.4
				c-0.2-0.2-0.3-0.5-0.4-0.8c-0.1-0.3-0.2-0.7-0.2-1.1v-4.2h1.5v4.3c0,0.2,0,0.4,0.1,0.6c0.1,0.2,0.1,0.3,0.2,0.4
				c0.1,0.1,0.2,0.2,0.3,0.2c0.1,0,0.3,0.1,0.4,0.1c0.4,0,0.7-0.1,0.9-0.2s0.4-0.3,0.5-0.6v-4.7h1.5v6.6h-1.4L78.8,301.4z"/>
			<path fill="#1976D2" d="M83.6,293.9v1.6h1.2v1.1h-1.2v3.7c0,0.2,0,0.3,0.1,0.4c0,0.1,0.1,0.2,0.1,0.2c0.1,0.1,0.1,0.1,0.2,0.1
				s0.2,0,0.3,0c0.1,0,0.2,0,0.3,0c0.1,0,0.2,0,0.2,0v1.1c-0.1,0-0.3,0.1-0.4,0.1c-0.2,0-0.3,0-0.6,0c-0.2,0-0.5,0-0.7-0.1
				c-0.2-0.1-0.4-0.2-0.5-0.3s-0.3-0.3-0.4-0.6c-0.1-0.2-0.1-0.5-0.1-0.9v-3.7h-1.1v-1.1h1.1v-1.6L83.6,293.9L83.6,293.9z"/>
			<path fill="#1976D2" d="M85.9,293.8c0-0.2,0.1-0.4,0.2-0.6c0.1-0.2,0.3-0.2,0.6-0.2c0.3,0,0.5,0.1,0.6,0.2s0.2,0.3,0.2,0.6
				c0,0.2-0.1,0.4-0.2,0.6c-0.1,0.1-0.3,0.2-0.6,0.2c-0.3,0-0.5-0.1-0.6-0.2C86,294.2,85.9,294,85.9,293.8z M87.4,302.1H86v-6.6h1.5
				V302.1z"/>
			<path fill="#1976D2" d="M88.8,298.7c0-0.5,0.1-0.9,0.2-1.3c0.1-0.4,0.3-0.8,0.6-1.1c0.3-0.3,0.6-0.5,1-0.7s0.8-0.3,1.3-0.3
				s0.9,0.1,1.3,0.3c0.4,0.2,0.7,0.4,1,0.7c0.3,0.3,0.5,0.7,0.6,1.1c0.1,0.4,0.2,0.9,0.2,1.3v0.1c0,0.5-0.1,0.9-0.2,1.3
				c-0.1,0.4-0.3,0.8-0.6,1.1s-0.6,0.5-1,0.7c-0.4,0.2-0.8,0.3-1.3,0.3c-0.5,0-0.9-0.1-1.3-0.3c-0.4-0.2-0.7-0.4-1-0.7
				s-0.5-0.6-0.6-1.1c-0.1-0.4-0.2-0.9-0.2-1.3L88.8,298.7L88.8,298.7z M90.2,298.9c0,0.3,0,0.6,0.1,0.8c0.1,0.3,0.2,0.5,0.3,0.7
				c0.1,0.2,0.3,0.3,0.5,0.5c0.2,0.1,0.4,0.2,0.7,0.2c0.3,0,0.5-0.1,0.7-0.2c0.2-0.1,0.4-0.3,0.5-0.5c0.1-0.2,0.2-0.4,0.3-0.7
				s0.1-0.5,0.1-0.8v-0.1c0-0.3,0-0.6-0.1-0.8c-0.1-0.3-0.2-0.5-0.3-0.7c-0.1-0.2-0.3-0.3-0.5-0.5c-0.2-0.1-0.4-0.2-0.7-0.2
				c-0.3,0-0.5,0.1-0.7,0.2c-0.2,0.1-0.4,0.3-0.5,0.5c-0.1,0.2-0.2,0.4-0.3,0.7c-0.1,0.3-0.1,0.5-0.1,0.8V298.9z"/>
			<path fill="#1976D2" d="M97.5,295.5l0,0.8c0.2-0.3,0.5-0.5,0.8-0.6c0.3-0.2,0.7-0.2,1.1-0.2c0.3,0,0.6,0,0.9,0.1
				c0.3,0.1,0.5,0.2,0.7,0.4c0.2,0.2,0.3,0.5,0.4,0.8c0.1,0.3,0.1,0.7,0.1,1.1v4.2H100v-4.2c0-0.2,0-0.4-0.1-0.6
				c-0.1-0.2-0.1-0.3-0.2-0.4c-0.1-0.1-0.2-0.2-0.4-0.2c-0.1,0-0.3-0.1-0.5-0.1c-0.3,0-0.6,0.1-0.8,0.2s-0.4,0.3-0.5,0.6v4.7h-1.5
				v-6.6L97.5,295.5L97.5,295.5z"/>
			<path fill="#1976D2" d="M106.7,300.3c0-0.1,0-0.2-0.1-0.3c0-0.1-0.1-0.2-0.2-0.3c-0.1-0.1-0.2-0.2-0.4-0.2
				c-0.2-0.1-0.4-0.1-0.7-0.2c-0.3-0.1-0.7-0.2-1-0.3c-0.3-0.1-0.5-0.2-0.7-0.4c-0.2-0.2-0.4-0.3-0.5-0.6c-0.1-0.2-0.2-0.5-0.2-0.7
				c0-0.3,0.1-0.5,0.2-0.8c0.1-0.2,0.3-0.5,0.5-0.6s0.5-0.3,0.8-0.4c0.3-0.1,0.7-0.2,1.1-0.2c0.4,0,0.8,0.1,1.1,0.2
				c0.3,0.1,0.6,0.3,0.8,0.4c0.2,0.2,0.4,0.4,0.5,0.7s0.2,0.5,0.2,0.8h-1.5c0-0.1,0-0.2-0.1-0.4c-0.1-0.1-0.1-0.2-0.2-0.3
				c-0.1-0.1-0.2-0.2-0.4-0.2c-0.1-0.1-0.3-0.1-0.5-0.1c-0.2,0-0.3,0-0.5,0.1c-0.1,0.1-0.3,0.1-0.3,0.2c-0.1,0.1-0.2,0.2-0.2,0.3
				c0,0.1-0.1,0.2-0.1,0.3c0,0.1,0,0.2,0.1,0.3c0,0.1,0.1,0.2,0.2,0.2c0.1,0.1,0.2,0.1,0.4,0.2c0.2,0.1,0.4,0.1,0.7,0.2
				c0.4,0.1,0.7,0.2,1,0.3c0.3,0.1,0.6,0.2,0.8,0.4c0.2,0.2,0.4,0.3,0.5,0.6c0.1,0.2,0.2,0.5,0.2,0.8s-0.1,0.6-0.2,0.8
				c-0.1,0.2-0.3,0.5-0.5,0.6c-0.2,0.2-0.5,0.3-0.8,0.4c-0.3,0.1-0.7,0.1-1.1,0.1c-0.5,0-0.8-0.1-1.2-0.2c-0.3-0.1-0.6-0.3-0.9-0.5
				s-0.4-0.4-0.5-0.7c-0.1-0.3-0.2-0.5-0.2-0.8h1.4c0,0.2,0.1,0.4,0.1,0.5c0.1,0.1,0.2,0.2,0.3,0.3c0.1,0.1,0.3,0.1,0.4,0.2
				s0.3,0.1,0.5,0.1c0.4,0,0.7-0.1,0.9-0.2C106.6,300.7,106.7,300.5,106.7,300.3z"/>
		</g>
	</g>
</g>
<text transform="matrix(1 0 0 1 38.2134 109.7398)" font-family="'Roboto-Medium'" font-size="97.619">10% Off</text>
<rect x="125.6" y="235.3" fill="none" width="276.4" height="42.1"/>
<text transform="matrix(1 0 0 1 125.5601 244.2684)"><tspan x="0" y="0" font-family="'Roboto-Regular'" font-size="12">Limited</tspan><tspan x="39.8" y="0" font-family="'Roboto-Regular'" font-size="12"> </tspan><tspan x="43.2" y="0" font-family="'Roboto-Regular'" font-size="12">time</tspan><tspan x="66.9" y="0" font-family="'Roboto-Regular'" font-size="12"> </tspan><tspan x="70.2" y="0" font-family="'Roboto-Regular'" font-size="12">offer.</tspan><tspan x="99" y="0" font-family="'Roboto-Regular'" font-size="12"> </tspan><tspan x="102.3" y="0" font-family="'Roboto-Regular'" font-size="12">Please</tspan><tspan x="138.2" y="0" font-family="'Roboto-Regular'" font-size="12"> </tspan><tspan x="141.6" y="0" font-family="'Roboto-Regular'" font-size="12">print</tspan><tspan x="165.8" y="0" font-family="'Roboto-Regular'" font-size="12"> </tspan><tspan x="169.2" y="0" font-family="'Roboto-Regular'" font-size="12">out</tspan><tspan x="186.6" y="0" font-family="'Roboto-Regular'" font-size="12"> </tspan><tspan x="189.9" y="0" font-family="'Roboto-Regular'" font-size="12">and</tspan><tspan x="209.8" y="0" font-family="'Roboto-Regular'" font-size="12"> </tspan><tspan x="213.2" y="0" font-family="'Roboto-Regular'" font-size="12">present</tspan><tspan x="253.4" y="0" font-family="'Roboto-Regular'" font-size="12"> </tspan><tspan x="256.7" y="0" font-family="'Roboto-Regular'" font-size="12">this </tspan><tspan x="0" y="14.4" font-family="'Roboto-Regular'" font-size="12">coupon</tspan><tspan x="39.9" y="14.4" font-family="'Roboto-Regular'" font-size="12" letter-spacing="1"> </tspan><tspan x="44.3" y="14.4" font-family="'Roboto-Regular'" font-size="12">to</tspan><tspan x="55" y="14.4" font-family="'Roboto-Regular'" font-size="12" letter-spacing="1"> </tspan><tspan x="59.4" y="14.4" font-family="'Roboto-Regular'" font-size="12">redeem.</tspan><tspan x="102.9" y="14.4" font-family="'Roboto-Regular'" font-size="12" letter-spacing="1"> </tspan><tspan x="107.3" y="14.4" font-family="'Roboto-Regular'" font-size="12">Limit</tspan><tspan x="134" y="14.4" font-family="'Roboto-Regular'" font-size="12" letter-spacing="1"> </tspan><tspan x="138.3" y="14.4" font-family="'Roboto-Regular'" font-size="12">one</tspan><tspan x="158.2" y="14.4" font-family="'Roboto-Regular'" font-size="12" letter-spacing="1"> </tspan><tspan x="162.5" y="14.4" font-family="'Roboto-Regular'" font-size="12">coupon</tspan><tspan x="202.4" y="14.4" font-family="'Roboto-Regular'" font-size="12" letter-spacing="1"> </tspan><tspan x="206.8" y="14.4" font-family="'Roboto-Regular'" font-size="12">per</tspan><tspan x="223.9" y="14.4" font-family="'Roboto-Regular'" font-size="12" letter-spacing="1"> </tspan><tspan x="228.2" y="14.4" font-family="'Roboto-Regular'" font-size="12">cleaning. </tspan><tspan x="0" y="28.8" font-family="'Roboto-Regular'" font-size="12">See dealer for more details. </tspan></text>
<text transform="matrix(1 0 0 1 33.9307 173.1419)" font-family="'Roboto-Medium'" font-size="46.8571">System Cleaning</text>
</svg>
