<?xml version="1.0" encoding="utf-8"?>
<!-- Generator: Adobe Illustrator 18.0.0, SVG Export Plug-In . SVG Version: 6.00 Build 0)  -->
<!DOCTYPE svg PUBLIC "-//W3C//DTD SVG 1.1//EN" "http://www.w3.org/Graphics/SVG/1.1/DTD/svg11.dtd">
<svg version="1.1" id="Layer_1" xmlns="http://www.w3.org/2000/svg" xmlns:xlink="http://www.w3.org/1999/xlink" x="0px" y="0px"
	 viewBox="0 0 640 480" enable-background="new 0 0 640 480" xml:space="preserve">
<g>
	<rect x="5" y="3" fill="#FFFFFF" width="630" height="472.5"/>
	<g>
		<polyline fill="none" stroke="#000000" stroke-width="5" stroke-linecap="square" stroke-linejoin="round" points="635,469.5 
			635,475.5 629,475.5 		"/>
		
			<line fill="none" stroke="#000000" stroke-width="5" stroke-linecap="square" stroke-linejoin="round" stroke-dasharray="12.1176,12.1176" x1="616.9" y1="475.5" x2="17.1" y2="475.5"/>
		<polyline fill="none" stroke="#000000" stroke-width="5" stroke-linecap="square" stroke-linejoin="round" points="11,475.5 
			5,475.5 5,469.5 		"/>
		
			<line fill="none" stroke="#000000" stroke-width="5" stroke-linecap="square" stroke-linejoin="round" stroke-dasharray="11.8077,11.8077" x1="5" y1="457.7" x2="5" y2="14.9"/>
		<polyline fill="none" stroke="#000000" stroke-width="5" stroke-linecap="square" stroke-linejoin="round" points="5,9 5,3 11,3 
					"/>
		
			<line fill="none" stroke="#000000" stroke-width="5" stroke-linecap="square" stroke-linejoin="round" stroke-dasharray="12.1176,12.1176" x1="23.1" y1="3" x2="622.9" y2="3"/>
		<polyline fill="none" stroke="#000000" stroke-width="5" stroke-linecap="square" stroke-linejoin="round" points="629,3 635,3 
			635,9 		"/>
		
			<line fill="none" stroke="#000000" stroke-width="5" stroke-linecap="square" stroke-linejoin="round" stroke-dasharray="11.8077,11.8077" x1="635" y1="20.8" x2="635" y2="463.6"/>
	</g>
</g>
<rect x="8" y="310.4" fill="#7AC943" width="624" height="161.9"/>
<g>
	<g>
		<g>
			<path fill="#1976D2" d="M34.3,346.1v-26.2h9c1.4,0,2.7,0.1,3.8,0.4c1.1,0.3,2.1,0.7,2.9,1.3c0.8,0.6,1.4,1.3,1.8,2.2
				c0.4,0.9,0.6,2,0.6,3.2c0,1.2-0.3,2.3-1,3.2c-0.6,1-1.6,1.7-2.8,2.2c0.8,0.2,1.4,0.5,2,0.9c0.6,0.4,1,0.9,1.4,1.4
				c0.4,0.5,0.6,1.1,0.8,1.7c0.2,0.6,0.3,1.3,0.3,2c0,1.3-0.2,2.4-0.6,3.3c-0.4,0.9-1,1.7-1.8,2.4c-0.8,0.6-1.7,1.1-2.9,1.4
				c-1.1,0.3-2.4,0.5-3.8,0.5L34.3,346.1L34.3,346.1z M38.9,330.9h4.5c1.4,0,2.5-0.3,3.3-1s1.2-1.5,1.2-2.7c0-1.3-0.4-2.2-1.1-2.8
				s-1.9-0.9-3.4-0.9h-4.4L38.9,330.9L38.9,330.9z M38.9,334.3v8.2h5.1c0.7,0,1.4-0.1,2-0.3c0.6-0.2,1-0.5,1.4-0.8
				c0.4-0.3,0.7-0.8,0.9-1.3c0.2-0.5,0.3-1,0.3-1.6c0-1.3-0.3-2.3-1-3.1c-0.7-0.7-1.8-1.1-3.3-1.1H38.9z"/>
			<path fill="#1976D2" d="M67.3,330.6c-0.3,0-0.6-0.1-0.9-0.1c-0.3,0-0.6,0-0.9,0c-1.1,0-1.9,0.2-2.6,0.6c-0.7,0.4-1.2,1-1.5,1.7
				v13.3h-4.4v-19.5h4.2l0.1,2.2c0.5-0.8,1.1-1.4,1.8-1.9c0.7-0.5,1.6-0.7,2.6-0.7c0.3,0,0.5,0,0.9,0.1c0.3,0,0.6,0.1,0.7,0.2
				L67.3,330.6z"/>
			<path fill="#1976D2" d="M78.3,346.5c-1.4,0-2.7-0.2-3.9-0.7c-1.2-0.5-2.1-1.1-2.9-2c-0.8-0.8-1.4-1.8-1.9-3
				c-0.4-1.2-0.6-2.4-0.6-3.7v-0.7c0-1.5,0.2-2.9,0.7-4.2s1.1-2.3,1.9-3.2c0.8-0.9,1.7-1.5,2.8-2c1.1-0.5,2.2-0.7,3.5-0.7
				c1.4,0,2.6,0.2,3.7,0.7c1,0.5,1.9,1.1,2.6,2c0.7,0.9,1.2,1.9,1.5,3c0.3,1.2,0.5,2.5,0.5,3.9v1.9H73.4c0.1,0.8,0.2,1.4,0.5,2.1
				c0.3,0.6,0.6,1.2,1.1,1.6c0.4,0.5,1,0.8,1.6,1.1c0.6,0.3,1.3,0.4,2.1,0.4c1.1,0,2-0.2,2.8-0.6s1.5-1,2.1-1.8l2.3,2.3
				c-0.3,0.5-0.7,0.9-1.2,1.4c-0.5,0.4-1,0.8-1.6,1.2c-0.6,0.3-1.3,0.6-2.1,0.8C80.1,346.3,79.3,346.5,78.3,346.5z M77.8,329.8
				c-1.2,0-2.2,0.4-2.9,1.3c-0.7,0.8-1.2,2-1.4,3.5h8.3v-0.3c0-0.6-0.1-1.1-0.3-1.7c-0.2-0.5-0.4-1-0.7-1.4s-0.7-0.7-1.2-1
				C79.1,329.9,78.5,329.8,77.8,329.8z"/>
			<path fill="#1976D2" d="M101.1,346.1c-0.1-0.2-0.2-0.5-0.3-0.8c-0.1-0.3-0.1-0.6-0.2-1c-0.3,0.3-0.6,0.6-1,0.9
				c-0.3,0.3-0.7,0.5-1.2,0.7c-0.4,0.2-0.9,0.3-1.4,0.5c-0.5,0.1-1,0.2-1.6,0.2c-1,0-1.9-0.1-2.7-0.4c-0.8-0.3-1.5-0.7-2.1-1.2
				c-0.6-0.5-1-1.1-1.4-1.8c-0.3-0.7-0.5-1.5-0.5-2.3c0-1,0.2-2,0.6-2.8c0.4-0.8,1-1.5,1.7-2c0.8-0.5,1.7-0.9,2.8-1.2
				c1.1-0.3,2.3-0.4,3.8-0.4h2.8v-1.3c0-1-0.3-1.8-0.9-2.4s-1.4-0.9-2.6-0.9c-0.5,0-1,0.1-1.4,0.2c-0.4,0.1-0.8,0.3-1.1,0.6
				c-0.3,0.2-0.5,0.5-0.7,0.8c-0.2,0.3-0.2,0.7-0.2,1h-4.4c0-0.8,0.2-1.5,0.6-2.2c0.4-0.7,0.9-1.4,1.6-1.9s1.5-1,2.5-1.3
				c1-0.3,2.1-0.5,3.3-0.5c1.1,0,2.1,0.1,3,0.4c0.9,0.3,1.7,0.7,2.4,1.3c0.7,0.6,1.2,1.2,1.6,2.1c0.4,0.8,0.6,1.8,0.6,2.9v8.6
				c0,1.7,0.3,3.2,0.7,4.2v0.3L101.1,346.1L101.1,346.1z M96.3,342.9c0.5,0,1-0.1,1.4-0.2c0.4-0.1,0.8-0.3,1.2-0.5
				c0.3-0.2,0.7-0.5,0.9-0.7c0.3-0.3,0.5-0.6,0.6-0.9v-3.7h-2.3c-1.6,0-2.8,0.3-3.7,0.9c-0.8,0.6-1.2,1.4-1.2,2.4
				c0,0.4,0.1,0.8,0.2,1.1c0.1,0.3,0.3,0.6,0.6,0.9c0.3,0.3,0.6,0.4,1,0.6C95.4,342.9,95.8,342.9,96.3,342.9z"/>
			<path fill="#1976D2" d="M114.9,321.9v4.7h3.4v3.2h-3.4v10.9c0,0.4,0,0.8,0.1,1.1c0.1,0.3,0.2,0.5,0.4,0.6s0.4,0.3,0.6,0.3
				c0.3,0,0.5,0.1,0.8,0.1s0.6,0,0.9-0.1s0.5-0.1,0.7-0.1v3.4c-0.3,0.1-0.8,0.2-1.2,0.3c-0.5,0.1-1,0.1-1.7,0.1
				c-0.7,0-1.4-0.1-2-0.3c-0.6-0.2-1.2-0.5-1.6-0.9c-0.5-0.4-0.8-1-1.1-1.7c-0.3-0.7-0.4-1.5-0.4-2.6v-11.1h-3.2v-3.2h3.2v-4.7
				C110.5,321.9,114.9,321.9,114.9,321.9z"/>
			<path fill="#1976D2" d="M126,328.8c0.7-0.8,1.5-1.4,2.4-1.8c0.9-0.4,1.9-0.7,3-0.7c0.9,0,1.8,0.1,2.6,0.4c0.8,0.3,1.4,0.7,2,1.3
				c0.6,0.6,1,1.3,1.3,2.3c0.3,0.9,0.5,2,0.5,3.4v12.5h-4.4v-12.5c0-1.3-0.3-2.3-0.9-2.9c-0.6-0.6-1.4-0.8-2.6-0.8
				c-0.9,0-1.7,0.2-2.3,0.6c-0.6,0.4-1.2,1-1.6,1.7v13.9h-4.4v-27.6h4.4L126,328.8L126,328.8z"/>
			<path fill="#1976D2" d="M150.7,346.5c-1.4,0-2.7-0.2-3.9-0.7c-1.2-0.5-2.1-1.1-2.9-2c-0.8-0.8-1.4-1.8-1.9-3
				c-0.4-1.2-0.6-2.4-0.6-3.7v-0.7c0-1.5,0.2-2.9,0.7-4.2s1.1-2.3,1.9-3.2c0.8-0.9,1.7-1.5,2.8-2c1.1-0.5,2.2-0.7,3.5-0.7
				c1.4,0,2.6,0.2,3.7,0.7c1,0.5,1.9,1.1,2.6,2c0.7,0.9,1.2,1.9,1.5,3c0.3,1.2,0.5,2.5,0.5,3.9v1.9h-12.7c0.1,0.8,0.2,1.4,0.5,2.1
				c0.3,0.6,0.6,1.2,1.1,1.6c0.4,0.5,1,0.8,1.6,1.1c0.6,0.3,1.3,0.4,2.1,0.4c1.1,0,2-0.2,2.8-0.6c0.8-0.4,1.5-1,2.1-1.8l2.3,2.3
				c-0.3,0.5-0.7,0.9-1.2,1.4c-0.5,0.4-1,0.8-1.6,1.2c-0.6,0.3-1.3,0.6-2.1,0.8C152.5,346.3,151.6,346.5,150.7,346.5z M150.1,329.8
				c-1.2,0-2.2,0.4-2.9,1.3s-1.2,2-1.4,3.5h8.3v-0.3c0-0.6-0.1-1.1-0.3-1.7c-0.2-0.5-0.4-1-0.7-1.4s-0.7-0.7-1.2-1
				C151.5,329.9,150.9,329.8,150.1,329.8z"/>
		</g>
		<path fill="#ECF0F1" d="M21.1,373c0,0,27.7,15.6,69.8,0c43.8-16.2,76.7,0,76.7,0s-37.7-9.1-74.8,6.5C61,393,34.9,383.9,21.1,373"
			/>
		<path fill="#ECF0F1" d="M21.1,391.6c0,0,27.7,15.6,69.8,0c43.8-16.2,76.7,0,76.7,0s-37.7-9.1-74.8,6.5
			C61,411.5,34.9,402.4,21.1,391.6"/>
		<g>
			<path fill="#1976D2" d="M82.6,399.4H46.7v26.9h42v12.1H31.5V351h56.7v12.2H46.7v24.1h35.9V399.4z"/>
			<path fill="#1976D2" d="M115.3,426.2H162v12.1H96.9v-9.8l45.2-65.3H97.2V351h63.3v9.6L115.3,426.2z"/>
		</g>
		<path fill="#ECF0F1" d="M21.1,409.9c0,0,27.7,15.6,69.8,0c43.8-16.2,76.7,0,76.7,0s-37.7-9.1-74.8,6.5
			C61,429.9,34.9,420.8,21.1,409.9"/>
		<g>
			<path fill="#1976D2" d="M40,461.2h-2.3v-6h-6.1v6h-2.3v-13.6h2.4v5.6h6.1v-5.6h2.3L40,461.2L40,461.2z"/>
			<path fill="#1976D2" d="M42.2,456.1c0-0.7,0.1-1.4,0.3-2c0.2-0.6,0.5-1.2,0.9-1.6c0.4-0.5,0.9-0.8,1.5-1.1c0.6-0.3,1.2-0.4,2-0.4
				s1.4,0.1,2,0.4c0.6,0.3,1.1,0.6,1.5,1.1c0.4,0.5,0.7,1,0.9,1.6c0.2,0.6,0.3,1.3,0.3,2v0.2c0,0.7-0.1,1.4-0.3,2
				c-0.2,0.6-0.5,1.2-0.9,1.6c-0.4,0.5-0.9,0.8-1.5,1.1c-0.6,0.3-1.2,0.4-2,0.4c-0.7,0-1.4-0.1-2-0.4c-0.6-0.3-1.1-0.6-1.5-1.1
				c-0.4-0.5-0.7-1-0.9-1.6s-0.3-1.3-0.3-2L42.2,456.1L42.2,456.1z M44.5,456.3c0,0.5,0,0.9,0.1,1.3c0.1,0.4,0.2,0.8,0.4,1.1
				c0.2,0.3,0.5,0.5,0.8,0.7c0.3,0.2,0.7,0.3,1.1,0.3c0.4,0,0.8-0.1,1.1-0.3c0.3-0.2,0.6-0.4,0.8-0.7c0.2-0.3,0.3-0.6,0.4-1.1
				c0.1-0.4,0.1-0.8,0.1-1.3v-0.2c0-0.4,0-0.9-0.1-1.3c-0.1-0.4-0.2-0.8-0.4-1.1c-0.2-0.3-0.5-0.5-0.8-0.7c-0.3-0.2-0.7-0.3-1.1-0.3
				c-0.4,0-0.8,0.1-1.1,0.3s-0.6,0.4-0.8,0.7c-0.2,0.3-0.3,0.6-0.4,1.1c-0.1,0.4-0.1,0.8-0.1,1.3V456.3z"/>
			<path fill="#1976D2" d="M55.6,451.1l0.1,1.1c0.3-0.4,0.7-0.7,1.2-0.9c0.5-0.2,1-0.3,1.7-0.3c0.6,0,1.2,0.1,1.7,0.4
				c0.5,0.3,0.9,0.6,1.1,1.2c0.3-0.5,0.8-0.9,1.3-1.1c0.5-0.3,1.1-0.4,1.8-0.4c0.5,0,1,0.1,1.4,0.2c0.4,0.1,0.8,0.4,1,0.7
				c0.3,0.3,0.5,0.7,0.6,1.2c0.2,0.5,0.2,1,0.2,1.7v6.5h-2.3v-6.5c0-0.4,0-0.7-0.1-0.9s-0.2-0.4-0.4-0.6c-0.2-0.1-0.3-0.2-0.6-0.3
				c-0.2-0.1-0.5-0.1-0.8-0.1c-0.5,0-0.9,0.1-1.3,0.4c-0.3,0.3-0.6,0.6-0.7,1.1c0,0,0,0.1,0,0.1c0,0,0,0.1,0,0.1v6.7h-2.3v-6.5
				c0-0.3,0-0.6-0.1-0.9c-0.1-0.2-0.2-0.4-0.4-0.6c-0.2-0.1-0.3-0.3-0.6-0.3c-0.2-0.1-0.5-0.1-0.8-0.1c-0.5,0-0.9,0.1-1.2,0.3
				c-0.3,0.2-0.6,0.5-0.7,0.8v7.3h-2.3v-10.1H55.6z"/>
			<path fill="#1976D2" d="M74.5,461.4c-0.7,0-1.4-0.1-2-0.4s-1.1-0.6-1.5-1c-0.4-0.4-0.7-0.9-1-1.5s-0.3-1.2-0.3-1.9v-0.4
				c0-0.8,0.1-1.5,0.3-2.2c0.2-0.6,0.6-1.2,1-1.6c0.4-0.5,0.9-0.8,1.4-1c0.6-0.3,1.2-0.4,1.8-0.4c0.7,0,1.4,0.1,1.9,0.4
				c0.5,0.3,1,0.6,1.3,1s0.6,1,0.8,1.6c0.2,0.6,0.3,1.3,0.3,2v1H72c0,0.4,0.1,0.8,0.3,1.1c0.1,0.3,0.3,0.6,0.6,0.9s0.5,0.4,0.8,0.6
				c0.3,0.1,0.7,0.2,1.1,0.2c0.6,0,1-0.1,1.5-0.3c0.4-0.2,0.8-0.5,1.1-0.9l1.2,1.2c-0.2,0.2-0.4,0.5-0.6,0.7
				c-0.2,0.2-0.5,0.4-0.8,0.6c-0.3,0.2-0.7,0.3-1.1,0.4C75.5,461.3,75,461.4,74.5,461.4z M74.3,452.7c-0.6,0-1.1,0.2-1.5,0.6
				c-0.4,0.4-0.6,1-0.7,1.8h4.3V455c0-0.3-0.1-0.6-0.1-0.9s-0.2-0.5-0.4-0.7c-0.2-0.2-0.4-0.4-0.6-0.5
				C74.9,452.8,74.6,452.7,74.3,452.7z"/>
			<path fill="#1976D2" d="M92.4,457.7c0-0.3,0-0.5-0.1-0.7c-0.1-0.2-0.2-0.4-0.4-0.6c-0.2-0.2-0.5-0.3-0.9-0.5
				c-0.4-0.2-0.9-0.3-1.4-0.5c-0.6-0.2-1.2-0.4-1.8-0.7c-0.6-0.3-1-0.5-1.4-0.9c-0.4-0.3-0.7-0.7-0.9-1.1c-0.2-0.4-0.3-0.9-0.3-1.5
				s0.1-1.1,0.3-1.5c0.2-0.5,0.6-0.9,1-1.2c0.4-0.3,0.9-0.6,1.5-0.8c0.6-0.2,1.2-0.3,2-0.3c0.8,0,1.4,0.1,2.1,0.3
				c0.6,0.2,1.1,0.5,1.5,0.9c0.4,0.4,0.7,0.8,1,1.3c0.2,0.5,0.3,1,0.3,1.6h-2.3c0-0.3,0-0.6-0.2-0.9c-0.1-0.3-0.3-0.5-0.5-0.7
				c-0.2-0.2-0.5-0.4-0.8-0.5c-0.3-0.1-0.7-0.2-1.2-0.2c-0.4,0-0.8,0-1.1,0.1c-0.3,0.1-0.6,0.2-0.8,0.4c-0.2,0.2-0.3,0.4-0.4,0.6
				s-0.1,0.5-0.1,0.7c0,0.5,0.2,0.9,0.7,1.3c0.5,0.3,1.2,0.6,2.2,0.9c0.8,0.2,1.4,0.5,2,0.7c0.6,0.3,1,0.6,1.4,0.9
				c0.4,0.3,0.6,0.7,0.8,1.2c0.2,0.4,0.3,0.9,0.3,1.5c0,0.6-0.1,1.1-0.3,1.5c-0.2,0.5-0.6,0.9-1,1.2c-0.4,0.3-0.9,0.6-1.5,0.7
				c-0.6,0.2-1.3,0.3-2,0.3c-0.6,0-1.3-0.1-1.9-0.3c-0.6-0.2-1.2-0.4-1.7-0.8s-0.9-0.8-1.2-1.3c-0.3-0.5-0.5-1.2-0.5-1.9h2.4
				c0,0.4,0.1,0.8,0.2,1.1c0.2,0.3,0.4,0.6,0.6,0.8c0.3,0.2,0.6,0.3,0.9,0.4c0.4,0.1,0.7,0.1,1.2,0.1c0.8,0,1.4-0.2,1.8-0.5
				C92.2,458.7,92.4,458.2,92.4,457.7z"/>
			<path fill="#1976D2" d="M96.2,456.1c0-0.7,0.1-1.4,0.3-2c0.2-0.6,0.5-1.2,0.9-1.6c0.4-0.5,0.9-0.8,1.5-1.1c0.6-0.3,1.2-0.4,2-0.4
				s1.4,0.1,2,0.4c0.6,0.3,1.1,0.6,1.5,1.1c0.4,0.5,0.7,1,0.9,1.6c0.2,0.6,0.3,1.3,0.3,2v0.2c0,0.7-0.1,1.4-0.3,2
				c-0.2,0.6-0.5,1.2-0.9,1.6c-0.4,0.5-0.9,0.8-1.5,1.1c-0.6,0.3-1.2,0.4-2,0.4c-0.7,0-1.4-0.1-2-0.4c-0.6-0.3-1.1-0.6-1.5-1.1
				c-0.4-0.5-0.7-1-0.9-1.6s-0.3-1.3-0.3-2L96.2,456.1L96.2,456.1z M98.4,456.3c0,0.5,0,0.9,0.1,1.3c0.1,0.4,0.2,0.8,0.4,1.1
				c0.2,0.3,0.5,0.5,0.8,0.7c0.3,0.2,0.7,0.3,1.1,0.3s0.8-0.1,1.1-0.3c0.3-0.2,0.6-0.4,0.8-0.7c0.2-0.3,0.3-0.6,0.4-1.1
				c0.1-0.4,0.1-0.8,0.1-1.3v-0.2c0-0.4,0-0.9-0.1-1.3c-0.1-0.4-0.2-0.8-0.4-1.1c-0.2-0.3-0.5-0.5-0.8-0.7c-0.3-0.2-0.7-0.3-1.1-0.3
				c-0.4,0-0.8,0.1-1.1,0.3s-0.6,0.4-0.8,0.7c-0.2,0.3-0.3,0.6-0.4,1.1c-0.1,0.4-0.1,0.8-0.1,1.3V456.3L98.4,456.3z"/>
			<path fill="#1976D2" d="M109.9,461.2h-2.3v-14.3h2.3L109.9,461.2L109.9,461.2z"/>
			<path fill="#1976D2" d="M118.4,460.2c-0.3,0.4-0.7,0.7-1.2,0.9c-0.5,0.2-1,0.3-1.7,0.3c-0.5,0-0.9-0.1-1.4-0.2
				c-0.4-0.1-0.8-0.4-1.1-0.7c-0.3-0.3-0.5-0.7-0.7-1.2c-0.2-0.5-0.2-1-0.2-1.7v-6.5h2.3v6.5c0,0.4,0,0.7,0.1,0.9
				c0.1,0.3,0.2,0.4,0.3,0.6c0.1,0.1,0.3,0.3,0.5,0.3c0.2,0.1,0.4,0.1,0.6,0.1c0.6,0,1.1-0.1,1.4-0.3c0.4-0.2,0.6-0.5,0.8-0.9v-7.2
				h2.3v10.1h-2.1L118.4,460.2z"/>
			<path fill="#1976D2" d="M125.8,448.7v2.4h1.8v1.7h-1.8v5.6c0,0.2,0,0.4,0.1,0.6c0,0.1,0.1,0.3,0.2,0.3c0.1,0.1,0.2,0.1,0.3,0.2
				c0.1,0,0.3,0,0.4,0s0.3,0,0.5,0c0.1,0,0.3,0,0.3-0.1v1.7c-0.2,0-0.4,0.1-0.6,0.1c-0.2,0-0.5,0.1-0.9,0.1c-0.4,0-0.7,0-1-0.1
				c-0.3-0.1-0.6-0.3-0.8-0.5c-0.2-0.2-0.4-0.5-0.6-0.9c-0.1-0.4-0.2-0.8-0.2-1.3v-5.7h-1.7v-1.7h1.7v-2.4L125.8,448.7L125.8,448.7z
				"/>
			<path fill="#1976D2" d="M129.3,448.5c0-0.3,0.1-0.6,0.3-0.9c0.2-0.2,0.5-0.3,0.9-0.3c0.4,0,0.7,0.1,0.9,0.3
				c0.2,0.2,0.3,0.5,0.3,0.9c0,0.3-0.1,0.6-0.3,0.9s-0.5,0.3-0.9,0.3c-0.4,0-0.7-0.1-0.9-0.3C129.4,449.1,129.3,448.8,129.3,448.5z
				 M131.7,461.2h-2.3v-10.1h2.3V461.2z"/>
			<path fill="#1976D2" d="M133.7,456.1c0-0.7,0.1-1.4,0.3-2c0.2-0.6,0.5-1.2,0.9-1.6c0.4-0.5,0.9-0.8,1.5-1.1
				c0.6-0.3,1.2-0.4,2-0.4s1.4,0.1,2,0.4c0.6,0.3,1.1,0.6,1.5,1.1c0.4,0.5,0.7,1,0.9,1.6c0.2,0.6,0.3,1.3,0.3,2v0.2
				c0,0.7-0.1,1.4-0.3,2c-0.2,0.6-0.5,1.2-0.9,1.6c-0.4,0.5-0.9,0.8-1.5,1.1c-0.6,0.3-1.2,0.4-2,0.4c-0.7,0-1.4-0.1-2-0.4
				c-0.6-0.3-1.1-0.6-1.5-1.1c-0.4-0.5-0.7-1-0.9-1.6c-0.2-0.6-0.3-1.3-0.3-2L133.7,456.1L133.7,456.1z M136,456.3
				c0,0.5,0,0.9,0.1,1.3s0.2,0.8,0.4,1.1c0.2,0.3,0.5,0.5,0.8,0.7c0.3,0.2,0.7,0.3,1.1,0.3c0.4,0,0.8-0.1,1.1-0.3
				c0.3-0.2,0.6-0.4,0.8-0.7c0.2-0.3,0.3-0.6,0.4-1.1c0.1-0.4,0.1-0.8,0.1-1.3v-0.2c0-0.4,0-0.9-0.1-1.3c-0.1-0.4-0.2-0.8-0.4-1.1
				c-0.2-0.3-0.5-0.5-0.8-0.7c-0.3-0.2-0.7-0.3-1.1-0.3c-0.4,0-0.8,0.1-1.1,0.3s-0.6,0.4-0.8,0.7c-0.2,0.3-0.3,0.6-0.4,1.1
				c-0.1,0.4-0.1,0.8-0.1,1.3V456.3z"/>
			<path fill="#1976D2" d="M147.1,451.1l0.1,1.2c0.3-0.4,0.8-0.8,1.3-1c0.5-0.2,1.1-0.3,1.7-0.3c0.5,0,0.9,0.1,1.3,0.2
				c0.4,0.1,0.7,0.3,1,0.6c0.3,0.3,0.5,0.7,0.6,1.2c0.2,0.5,0.2,1.1,0.2,1.7v6.5H151v-6.5c0-0.3,0-0.6-0.1-0.9s-0.2-0.4-0.3-0.6
				c-0.1-0.1-0.3-0.3-0.6-0.3c-0.2-0.1-0.5-0.1-0.8-0.1c-0.5,0-0.9,0.1-1.2,0.3c-0.3,0.2-0.6,0.5-0.8,0.9v7.2H145v-10.1L147.1,451.1
				L147.1,451.1z"/>
			<path fill="#1976D2" d="M161.3,458.5c0-0.2,0-0.3-0.1-0.5c0-0.1-0.2-0.3-0.3-0.4s-0.4-0.2-0.7-0.3s-0.6-0.2-1.1-0.3
				c-0.5-0.1-1-0.3-1.5-0.4c-0.4-0.2-0.8-0.4-1.1-0.6c-0.3-0.2-0.6-0.5-0.7-0.9c-0.2-0.3-0.3-0.7-0.3-1.1c0-0.4,0.1-0.8,0.3-1.2
				c0.2-0.4,0.4-0.7,0.8-1s0.8-0.5,1.2-0.7c0.5-0.2,1-0.3,1.6-0.3c0.6,0,1.2,0.1,1.7,0.3c0.5,0.2,0.9,0.4,1.3,0.7
				c0.3,0.3,0.6,0.6,0.8,1c0.2,0.4,0.3,0.8,0.3,1.3h-2.3c0-0.2,0-0.4-0.1-0.6c-0.1-0.2-0.2-0.3-0.3-0.5c-0.1-0.1-0.3-0.3-0.6-0.3
				c-0.2-0.1-0.5-0.1-0.8-0.1c-0.3,0-0.5,0-0.7,0.1c-0.2,0.1-0.4,0.2-0.5,0.3c-0.1,0.1-0.2,0.3-0.3,0.4c-0.1,0.2-0.1,0.3-0.1,0.5
				s0,0.3,0.1,0.4c0.1,0.1,0.2,0.3,0.3,0.3c0.2,0.1,0.4,0.2,0.6,0.3c0.3,0.1,0.6,0.2,1,0.3c0.6,0.1,1.1,0.3,1.6,0.4
				c0.5,0.2,0.9,0.4,1.2,0.6c0.3,0.2,0.6,0.5,0.7,0.9c0.2,0.3,0.3,0.7,0.3,1.2s-0.1,0.9-0.3,1.2c-0.2,0.4-0.5,0.7-0.8,1
				c-0.4,0.3-0.8,0.5-1.3,0.6c-0.5,0.1-1.1,0.2-1.7,0.2c-0.7,0-1.3-0.1-1.8-0.3c-0.5-0.2-1-0.5-1.3-0.8c-0.4-0.3-0.6-0.7-0.8-1.1
				s-0.3-0.8-0.3-1.2h2.2c0,0.3,0.1,0.6,0.2,0.8c0.1,0.2,0.3,0.4,0.5,0.5c0.2,0.1,0.4,0.2,0.6,0.3c0.2,0.1,0.5,0.1,0.7,0.1
				c0.6,0,1.1-0.1,1.4-0.3C161.1,459.1,161.3,458.8,161.3,458.5z"/>
		</g>
	</g>
</g>
<text transform="matrix(1 0 0 1 56.0352 165.667)" font-family="'Roboto-Medium'" font-size="150">10% Off</text>
<rect x="190.3" y="361.3" fill="none" width="424.7" height="64.7"/>
<text transform="matrix(1 0 0 1 190.2504 371.8332)"><tspan x="0" y="0" font-family="'Roboto-Regular'" font-size="14">Limited</tspan><tspan x="46.5" y="0" font-family="'Roboto-Regular'" font-size="14" letter-spacing="3"> </tspan><tspan x="53.9" y="0" font-family="'Roboto-Regular'" font-size="14">time</tspan><tspan x="81.6" y="0" font-family="'Roboto-Regular'" font-size="14" letter-spacing="3"> </tspan><tspan x="89" y="0" font-family="'Roboto-Regular'" font-size="14">offer.</tspan><tspan x="122.5" y="0" font-family="'Roboto-Regular'" font-size="14" letter-spacing="3"> </tspan><tspan x="130" y="0" font-family="'Roboto-Regular'" font-size="14">Please</tspan><tspan x="171.9" y="0" font-family="'Roboto-Regular'" font-size="14" letter-spacing="3"> </tspan><tspan x="179.3" y="0" font-family="'Roboto-Regular'" font-size="14">print</tspan><tspan x="207.6" y="0" font-family="'Roboto-Regular'" font-size="14" letter-spacing="3"> </tspan><tspan x="215" y="0" font-family="'Roboto-Regular'" font-size="14">out</tspan><tspan x="235.3" y="0" font-family="'Roboto-Regular'" font-size="14" letter-spacing="3"> </tspan><tspan x="242.7" y="0" font-family="'Roboto-Regular'" font-size="14">and</tspan><tspan x="266" y="0" font-family="'Roboto-Regular'" font-size="14" letter-spacing="3"> </tspan><tspan x="273.4" y="0" font-family="'Roboto-Regular'" font-size="14">present</tspan><tspan x="320.3" y="0" font-family="'Roboto-Regular'" font-size="14" letter-spacing="3"> </tspan><tspan x="327.8" y="0" font-family="'Roboto-Regular'" font-size="14">this</tspan><tspan x="350.7" y="0" font-family="'Roboto-Regular'" font-size="14" letter-spacing="3"> </tspan><tspan x="358.1" y="0" font-family="'Roboto-Regular'" font-size="14">coupon</tspan><tspan x="404.7" y="0" font-family="'Roboto-Regular'" font-size="14" letter-spacing="3"> </tspan><tspan x="412.1" y="0" font-family="'Roboto-Regular'" font-size="14">to </tspan><tspan x="0" y="16.8" font-family="'Roboto-Regular'" font-size="14">redeem.</tspan><tspan x="50.8" y="16.8" font-family="'Roboto-Regular'" font-size="14" letter-spacing="1"> </tspan><tspan x="55.4" y="16.8" font-family="'Roboto-Regular'" font-size="14">Limit</tspan><tspan x="86.6" y="16.8" font-family="'Roboto-Regular'" font-size="14" letter-spacing="1"> </tspan><tspan x="91.2" y="16.8" font-family="'Roboto-Regular'" font-size="14">one</tspan><tspan x="114.3" y="16.8" font-family="'Roboto-Regular'" font-size="14" letter-spacing="1"> </tspan><tspan x="118.9" y="16.8" font-family="'Roboto-Regular'" font-size="14">coupon</tspan><tspan x="165.5" y="16.8" font-family="'Roboto-Regular'" font-size="14" letter-spacing="1"> </tspan><tspan x="170" y="16.8" font-family="'Roboto-Regular'" font-size="14">per</tspan><tspan x="190.1" y="16.8" font-family="'Roboto-Regular'" font-size="14" letter-spacing="1"> </tspan><tspan x="194.6" y="16.8" font-family="'Roboto-Regular'" font-size="14">property</tspan><tspan x="246.4" y="16.8" font-family="'Roboto-Regular'" font-size="14" letter-spacing="1"> </tspan><tspan x="251" y="16.8" font-family="'Roboto-Regular'" font-size="14">per</tspan><tspan x="271" y="16.8" font-family="'Roboto-Regular'" font-size="14" letter-spacing="1"> </tspan><tspan x="275.6" y="16.8" font-family="'Roboto-Regular'" font-size="14">cleaning.</tspan><tspan x="331.7" y="16.8" font-family="'Roboto-Regular'" font-size="14" letter-spacing="1"> </tspan><tspan x="336.3" y="16.8" font-family="'Roboto-Regular'" font-size="14">See</tspan><tspan x="359.4" y="16.8" font-family="'Roboto-Regular'" font-size="14" letter-spacing="1"> </tspan><tspan x="364" y="16.8" font-family="'Roboto-Regular'" font-size="14">dealer</tspan><tspan x="402.5" y="16.8" font-family="'Roboto-Regular'" font-size="14" letter-spacing="1"> </tspan><tspan x="407.1" y="16.8" font-family="'Roboto-Regular'" font-size="14">for </tspan><tspan x="0" y="33.6" font-family="'Roboto-Regular'" font-size="14">more details. </tspan></text>
<text transform="matrix(1 0 0 1 49.4549 263.089)" font-family="'Roboto-Medium'" font-size="72">System Cleaning</text>
</svg>
